  0
SECTION
  2
BLOCKS
  0
ENDSEC
  0
SECTION
  2
ENTITIES
  0
LINE
  8
0
 10
174.024
 20
0.0354156
 11
174.267
 21
0.0978851
  0
LINE
  8
0
 10
174.267
 20
0.0978851
 11
174.501
 21
0.190338
  0
LINE
  8
0
 10
174.501
 20
0.190338
 11
174.721
 21
0.31134
  0
LINE
  8
0
 10
174.721
 20
0.31134
 11
174.924
 21
0.458969
  0
LINE
  8
0
 10
174.924
 20
0.458969
 11
175.107
 21
0.630905
  0
LINE
  8
0
 10
175.107
 20
0.630905
 11
175.267
 21
0.824417
  0
LINE
  8
0
 10
175.267
 20
0.824417
 11
175.402
 21
1.03648
  0
LINE
  8
0
 10
175.402
 20
1.03648
 11
175.509
 21
1.26375
  0
LINE
  8
0
 10
175.509
 20
1.26375
 11
175.587
 21
1.50261
  0
LINE
  8
0
 10
175.587
 20
1.50261
 11
175.634
 21
1.74933
  0
LINE
  8
0
 10
175.634
 20
1.74933
 11
175.649
 21
2
  0
LINE
  8
0
 10
175.649
 20
2
 11
175.649
 21
130.914
  0
LINE
  8
0
 10
175.649
 20
130.914
 11
175.634
 21
131.165
  0
LINE
  8
0
 10
175.634
 20
131.165
 11
175.587
 21
131.412
  0
LINE
  8
0
 10
175.587
 20
131.412
 11
175.509
 21
131.651
  0
LINE
  8
0
 10
175.509
 20
131.651
 11
175.402
 21
131.878
  0
LINE
  8
0
 10
175.402
 20
131.878
 11
175.267
 21
132.09
  0
LINE
  8
0
 10
175.267
 20
132.09
 11
175.107
 21
132.283
  0
LINE
  8
0
 10
175.107
 20
132.283
 11
174.924
 21
132.455
  0
LINE
  8
0
 10
174.924
 20
132.455
 11
174.721
 21
132.603
  0
LINE
  8
0
 10
174.721
 20
132.603
 11
174.501
 21
132.724
  0
LINE
  8
0
 10
174.501
 20
132.724
 11
174.267
 21
132.816
  0
LINE
  8
0
 10
174.267
 20
132.816
 11
174.024
 21
132.879
  0
LINE
  8
0
 10
174.024
 20
132.879
 11
173.775
 21
132.91
  0
LINE
  8
0
 10
173.775
 20
132.91
 11
3.40475
 21
132.91
  0
LINE
  8
0
 10
3.40475
 20
132.91
 11
-6.24792
 21
87.498
  0
LINE
  8
0
 10
-6.24792
 20
87.498
 11
-6.30989
 21
87.3201
  0
LINE
  8
0
 10
-6.30989
 20
87.3201
 11
-6.39365
 21
87.1513
  0
LINE
  8
0
 10
-6.39365
 20
87.1513
 11
-6.49788
 21
86.9944
  0
LINE
  8
0
 10
-6.49788
 20
86.9944
 11
-6.62097
 21
86.8518
  0
LINE
  8
0
 10
-6.62097
 20
86.8518
 11
-6.76096
 21
86.7258
  0
LINE
  8
0
 10
-6.76096
 20
86.7258
 11
-6.91565
 21
86.6183
  0
LINE
  8
0
 10
-6.91565
 20
86.6183
 11
-7.08258
 21
86.531
  0
LINE
  8
0
 10
-7.08258
 20
86.531
 11
-7.25912
 21
86.4653
  0
LINE
  8
0
 10
-7.25912
 20
86.4653
 11
-7.44252
 21
86.4223
  0
LINE
  8
0
 10
-7.44252
 20
86.4223
 11
-7.62987
 21
86.4026
  0
LINE
  8
0
 10
-7.62987
 20
86.4026
 11
-7.81821
 21
86.4066
  0
LINE
  8
0
 10
-7.81821
 20
86.4066
 11
-8.00456
 21
86.4341
  0
LINE
  8
0
 10
-8.00456
 20
86.4341
 11
-24.7309
 21
89.9894
  0
LINE
  8
0
 10
-24.7309
 20
89.9894
 11
-24.9123
 21
90.0401
  0
LINE
  8
0
 10
-24.9123
 20
90.0401
 11
-25.086
 21
90.1131
  0
LINE
  8
0
 10
-25.086
 20
90.1131
 11
-25.2491
 21
90.2072
  0
LINE
  8
0
 10
-25.2491
 20
90.2072
 11
-25.3991
 21
90.3211
  0
LINE
  8
0
 10
-25.3991
 20
90.3211
 11
-25.5337
 21
90.4529
  0
LINE
  8
0
 10
-25.5337
 20
90.4529
 11
-25.6507
 21
90.6006
  0
LINE
  8
0
 10
-25.6507
 20
90.6006
 11
-25.7483
 21
90.7617
  0
LINE
  8
0
 10
-25.7483
 20
90.7617
 11
-25.8249
 21
90.9338
  0
LINE
  8
0
 10
-25.8249
 20
90.9338
 11
-25.8794
 21
91.1141
  0
LINE
  8
0
 10
-25.8794
 20
91.1141
 11
-25.9108
 21
91.2998
  0
LINE
  8
0
 10
-25.9108
 20
91.2998
 11
-25.9187
 21
91.4881
  0
LINE
  8
0
 10
-25.9187
 20
91.4881
 11
-25.9029
 21
91.6758
  0
LINE
  8
0
 10
-25.9029
 20
91.6758
 11
-17.1382
 21
132.91
  0
LINE
  8
0
 10
-17.1382
 20
132.91
 11
-173.775
 21
132.91
  0
LINE
  8
0
 10
-173.775
 20
132.91
 11
-174.024
 21
132.879
  0
LINE
  8
0
 10
-174.024
 20
132.879
 11
-174.267
 21
132.816
  0
LINE
  8
0
 10
-174.267
 20
132.816
 11
-174.501
 21
132.724
  0
LINE
  8
0
 10
-174.501
 20
132.724
 11
-174.721
 21
132.603
  0
LINE
  8
0
 10
-174.721
 20
132.603
 11
-174.924
 21
132.455
  0
LINE
  8
0
 10
-174.924
 20
132.455
 11
-175.107
 21
132.283
  0
LINE
  8
0
 10
-175.107
 20
132.283
 11
-175.267
 21
132.09
  0
LINE
  8
0
 10
-175.267
 20
132.09
 11
-175.402
 21
131.878
  0
LINE
  8
0
 10
-175.402
 20
131.878
 11
-175.509
 21
131.651
  0
LINE
  8
0
 10
-175.509
 20
131.651
 11
-175.587
 21
131.412
  0
LINE
  8
0
 10
-175.587
 20
131.412
 11
-175.634
 21
131.165
  0
LINE
  8
0
 10
-175.634
 20
131.165
 11
-175.649
 21
130.914
  0
LINE
  8
0
 10
-175.649
 20
130.914
 11
-175.649
 21
2
  0
LINE
  8
0
 10
-175.649
 20
2
 11
-175.634
 21
1.74933
  0
LINE
  8
0
 10
-175.634
 20
1.74933
 11
-175.587
 21
1.50261
  0
LINE
  8
0
 10
-175.587
 20
1.50261
 11
-175.509
 21
1.26375
  0
LINE
  8
0
 10
-175.509
 20
1.26375
 11
-175.402
 21
1.03648
  0
LINE
  8
0
 10
-175.402
 20
1.03648
 11
-175.267
 21
0.824417
  0
LINE
  8
0
 10
-175.267
 20
0.824417
 11
-175.107
 21
0.630905
  0
LINE
  8
0
 10
-175.107
 20
0.630905
 11
-174.924
 21
0.458969
  0
LINE
  8
0
 10
-174.924
 20
0.458969
 11
-174.721
 21
0.31134
  0
LINE
  8
0
 10
-174.721
 20
0.31134
 11
-174.501
 21
0.190338
  0
LINE
  8
0
 10
-174.501
 20
0.190338
 11
-174.267
 21
0.0978851
  0
LINE
  8
0
 10
-174.267
 20
0.0978851
 11
-174.024
 21
0.0354156
  0
LINE
  8
0
 10
-174.024
 20
0.0354156
 11
-173.775
 21
0.00393677
  0
LINE
  8
0
 10
-173.775
 20
0.00393677
 11
173.775
 21
0.00393677
  0
LINE
  8
0
 10
173.775
 20
0.00393677
 11
174.024
 21
0.0354156
  0
LINE
  8
0
 10
56.9399
 20
126.668
 11
56.7219
 21
126.695
  0
LINE
  8
0
 10
56.7219
 20
126.695
 11
56.509
 21
126.75
  0
LINE
  8
0
 10
56.509
 20
126.75
 11
56.3047
 21
126.831
  0
LINE
  8
0
 10
56.3047
 20
126.831
 11
56.1121
 21
126.937
  0
LINE
  8
0
 10
56.1121
 20
126.937
 11
55.9343
 21
127.066
  0
LINE
  8
0
 10
55.9343
 20
127.066
 11
55.7741
 21
127.216
  0
LINE
  8
0
 10
55.7741
 20
127.216
 11
55.634
 21
127.386
  0
LINE
  8
0
 10
55.634
 20
127.386
 11
55.5163
 21
127.571
  0
LINE
  8
0
 10
55.5163
 20
127.571
 11
55.4227
 21
127.77
  0
LINE
  8
0
 10
55.4227
 20
127.77
 11
55.3548
 21
127.979
  0
LINE
  8
0
 10
55.3548
 20
127.979
 11
55.3136
 21
128.195
  0
LINE
  8
0
 10
55.3136
 20
128.195
 11
55.2998
 21
128.414
  0
LINE
  8
0
 10
55.2998
 20
128.414
 11
55.3136
 21
128.634
  0
LINE
  8
0
 10
55.3136
 20
128.634
 11
55.3548
 21
128.85
  0
LINE
  8
0
 10
55.3548
 20
128.85
 11
55.4227
 21
129.059
  0
LINE
  8
0
 10
55.4227
 20
129.059
 11
55.5163
 21
129.257
  0
LINE
  8
0
 10
55.5163
 20
129.257
 11
55.634
 21
129.443
  0
LINE
  8
0
 10
55.634
 20
129.443
 11
55.7741
 21
129.612
  0
LINE
  8
0
 10
55.7741
 20
129.612
 11
55.9343
 21
129.763
  0
LINE
  8
0
 10
55.9343
 20
129.763
 11
56.1121
 21
129.892
  0
LINE
  8
0
 10
56.1121
 20
129.892
 11
56.3047
 21
129.998
  0
LINE
  8
0
 10
56.3047
 20
129.998
 11
56.509
 21
130.079
  0
LINE
  8
0
 10
56.509
 20
130.079
 11
56.7219
 21
130.133
  0
LINE
  8
0
 10
56.7219
 20
130.133
 11
56.9399
 21
130.161
  0
LINE
  8
0
 10
56.9399
 20
130.161
 11
57.1597
 21
130.161
  0
LINE
  8
0
 10
57.1597
 20
130.161
 11
57.3777
 21
130.133
  0
LINE
  8
0
 10
57.3777
 20
130.133
 11
57.5906
 21
130.079
  0
LINE
  8
0
 10
57.5906
 20
130.079
 11
57.7949
 21
129.998
  0
LINE
  8
0
 10
57.7949
 20
129.998
 11
57.9875
 21
129.892
  0
LINE
  8
0
 10
57.9875
 20
129.892
 11
58.1653
 21
129.763
  0
LINE
  8
0
 10
58.1653
 20
129.763
 11
58.3255
 21
129.612
  0
LINE
  8
0
 10
58.3255
 20
129.612
 11
58.4656
 21
129.443
  0
LINE
  8
0
 10
58.4656
 20
129.443
 11
58.5833
 21
129.257
  0
LINE
  8
0
 10
58.5833
 20
129.257
 11
58.6769
 21
129.059
  0
LINE
  8
0
 10
58.6769
 20
129.059
 11
58.7448
 21
128.85
  0
LINE
  8
0
 10
58.7448
 20
128.85
 11
58.786
 21
128.634
  0
LINE
  8
0
 10
58.786
 20
128.634
 11
58.7998
 21
128.414
  0
LINE
  8
0
 10
58.7998
 20
128.414
 11
58.786
 21
128.195
  0
LINE
  8
0
 10
58.786
 20
128.195
 11
58.7448
 21
127.979
  0
LINE
  8
0
 10
58.7448
 20
127.979
 11
58.6769
 21
127.77
  0
LINE
  8
0
 10
58.6769
 20
127.77
 11
58.5833
 21
127.571
  0
LINE
  8
0
 10
58.5833
 20
127.571
 11
58.4656
 21
127.386
  0
LINE
  8
0
 10
58.4656
 20
127.386
 11
58.3255
 21
127.216
  0
LINE
  8
0
 10
58.3255
 20
127.216
 11
58.1653
 21
127.066
  0
LINE
  8
0
 10
58.1653
 20
127.066
 11
57.9875
 21
126.937
  0
LINE
  8
0
 10
57.9875
 20
126.937
 11
57.7949
 21
126.831
  0
LINE
  8
0
 10
57.7949
 20
126.831
 11
57.5906
 21
126.75
  0
LINE
  8
0
 10
57.5906
 20
126.75
 11
57.3777
 21
126.695
  0
LINE
  8
0
 10
57.3777
 20
126.695
 11
57.1597
 21
126.668
  0
LINE
  8
0
 10
57.1597
 20
126.668
 11
56.9399
 21
126.668
  0
LINE
  8
0
 10
171.04
 20
126.668
 11
170.821
 21
126.695
  0
LINE
  8
0
 10
170.821
 20
126.695
 11
170.609
 21
126.75
  0
LINE
  8
0
 10
170.609
 20
126.75
 11
170.404
 21
126.831
  0
LINE
  8
0
 10
170.404
 20
126.831
 11
170.212
 21
126.937
  0
LINE
  8
0
 10
170.212
 20
126.937
 11
170.034
 21
127.066
  0
LINE
  8
0
 10
170.034
 20
127.066
 11
169.874
 21
127.216
  0
LINE
  8
0
 10
169.874
 20
127.216
 11
169.734
 21
127.386
  0
LINE
  8
0
 10
169.734
 20
127.386
 11
169.616
 21
127.571
  0
LINE
  8
0
 10
169.616
 20
127.571
 11
169.522
 21
127.77
  0
LINE
  8
0
 10
169.522
 20
127.77
 11
169.454
 21
127.979
  0
LINE
  8
0
 10
169.454
 20
127.979
 11
169.413
 21
128.195
  0
LINE
  8
0
 10
169.413
 20
128.195
 11
169.399
 21
128.414
  0
LINE
  8
0
 10
169.399
 20
128.414
 11
169.413
 21
128.634
  0
LINE
  8
0
 10
169.413
 20
128.634
 11
169.454
 21
128.85
  0
LINE
  8
0
 10
169.454
 20
128.85
 11
169.522
 21
129.059
  0
LINE
  8
0
 10
169.522
 20
129.059
 11
169.616
 21
129.257
  0
LINE
  8
0
 10
169.616
 20
129.257
 11
169.734
 21
129.443
  0
LINE
  8
0
 10
169.734
 20
129.443
 11
169.874
 21
129.612
  0
LINE
  8
0
 10
169.874
 20
129.612
 11
170.034
 21
129.763
  0
LINE
  8
0
 10
170.034
 20
129.763
 11
170.212
 21
129.892
  0
LINE
  8
0
 10
170.212
 20
129.892
 11
170.404
 21
129.998
  0
LINE
  8
0
 10
170.404
 20
129.998
 11
170.609
 21
130.079
  0
LINE
  8
0
 10
170.609
 20
130.079
 11
170.821
 21
130.133
  0
LINE
  8
0
 10
170.821
 20
130.133
 11
171.04
 21
130.161
  0
LINE
  8
0
 10
171.04
 20
130.161
 11
171.259
 21
130.161
  0
LINE
  8
0
 10
171.259
 20
130.161
 11
171.477
 21
130.133
  0
LINE
  8
0
 10
171.477
 20
130.133
 11
171.69
 21
130.079
  0
LINE
  8
0
 10
171.69
 20
130.079
 11
171.895
 21
129.998
  0
LINE
  8
0
 10
171.895
 20
129.998
 11
172.087
 21
129.892
  0
LINE
  8
0
 10
172.087
 20
129.892
 11
172.265
 21
129.763
  0
LINE
  8
0
 10
172.265
 20
129.763
 11
172.425
 21
129.612
  0
LINE
  8
0
 10
172.425
 20
129.612
 11
172.565
 21
129.443
  0
LINE
  8
0
 10
172.565
 20
129.443
 11
172.683
 21
129.257
  0
LINE
  8
0
 10
172.683
 20
129.257
 11
172.777
 21
129.059
  0
LINE
  8
0
 10
172.777
 20
129.059
 11
172.844
 21
128.85
  0
LINE
  8
0
 10
172.844
 20
128.85
 11
172.886
 21
128.634
  0
LINE
  8
0
 10
172.886
 20
128.634
 11
172.899
 21
128.414
  0
LINE
  8
0
 10
172.899
 20
128.414
 11
172.886
 21
128.195
  0
LINE
  8
0
 10
172.886
 20
128.195
 11
172.844
 21
127.979
  0
LINE
  8
0
 10
172.844
 20
127.979
 11
172.777
 21
127.77
  0
LINE
  8
0
 10
172.777
 20
127.77
 11
172.683
 21
127.571
  0
LINE
  8
0
 10
172.683
 20
127.571
 11
172.565
 21
127.386
  0
LINE
  8
0
 10
172.565
 20
127.386
 11
172.425
 21
127.216
  0
LINE
  8
0
 10
172.425
 20
127.216
 11
172.265
 21
127.066
  0
LINE
  8
0
 10
172.265
 20
127.066
 11
172.087
 21
126.937
  0
LINE
  8
0
 10
172.087
 20
126.937
 11
171.895
 21
126.831
  0
LINE
  8
0
 10
171.895
 20
126.831
 11
171.69
 21
126.75
  0
LINE
  8
0
 10
171.69
 20
126.75
 11
171.477
 21
126.695
  0
LINE
  8
0
 10
171.477
 20
126.695
 11
171.259
 21
126.668
  0
LINE
  8
0
 10
171.259
 20
126.668
 11
171.04
 21
126.668
  0
LINE
  8
0
 10
-57.1597
 20
126.668
 11
-57.3777
 21
126.695
  0
LINE
  8
0
 10
-57.3777
 20
126.695
 11
-57.5906
 21
126.75
  0
LINE
  8
0
 10
-57.5906
 20
126.75
 11
-57.7949
 21
126.831
  0
LINE
  8
0
 10
-57.7949
 20
126.831
 11
-57.9875
 21
126.937
  0
LINE
  8
0
 10
-57.9875
 20
126.937
 11
-58.1653
 21
127.066
  0
LINE
  8
0
 10
-58.1653
 20
127.066
 11
-58.3255
 21
127.216
  0
LINE
  8
0
 10
-58.3255
 20
127.216
 11
-58.4656
 21
127.386
  0
LINE
  8
0
 10
-58.4656
 20
127.386
 11
-58.5833
 21
127.571
  0
LINE
  8
0
 10
-58.5833
 20
127.571
 11
-58.6769
 21
127.77
  0
LINE
  8
0
 10
-58.6769
 20
127.77
 11
-58.7448
 21
127.979
  0
LINE
  8
0
 10
-58.7448
 20
127.979
 11
-58.786
 21
128.195
  0
LINE
  8
0
 10
-58.786
 20
128.195
 11
-58.7998
 21
128.414
  0
LINE
  8
0
 10
-58.7998
 20
128.414
 11
-58.786
 21
128.634
  0
LINE
  8
0
 10
-58.786
 20
128.634
 11
-58.7448
 21
128.85
  0
LINE
  8
0
 10
-58.7448
 20
128.85
 11
-58.6769
 21
129.059
  0
LINE
  8
0
 10
-58.6769
 20
129.059
 11
-58.5833
 21
129.257
  0
LINE
  8
0
 10
-58.5833
 20
129.257
 11
-58.4656
 21
129.443
  0
LINE
  8
0
 10
-58.4656
 20
129.443
 11
-58.3255
 21
129.612
  0
LINE
  8
0
 10
-58.3255
 20
129.612
 11
-58.1653
 21
129.763
  0
LINE
  8
0
 10
-58.1653
 20
129.763
 11
-57.9875
 21
129.892
  0
LINE
  8
0
 10
-57.9875
 20
129.892
 11
-57.7949
 21
129.998
  0
LINE
  8
0
 10
-57.7949
 20
129.998
 11
-57.5906
 21
130.079
  0
LINE
  8
0
 10
-57.5906
 20
130.079
 11
-57.3777
 21
130.133
  0
LINE
  8
0
 10
-57.3777
 20
130.133
 11
-57.1597
 21
130.161
  0
LINE
  8
0
 10
-57.1597
 20
130.161
 11
-56.9399
 21
130.161
  0
LINE
  8
0
 10
-56.9399
 20
130.161
 11
-56.7219
 21
130.133
  0
LINE
  8
0
 10
-56.7219
 20
130.133
 11
-56.509
 21
130.079
  0
LINE
  8
0
 10
-56.509
 20
130.079
 11
-56.3047
 21
129.998
  0
LINE
  8
0
 10
-56.3047
 20
129.998
 11
-56.1121
 21
129.892
  0
LINE
  8
0
 10
-56.1121
 20
129.892
 11
-55.9343
 21
129.763
  0
LINE
  8
0
 10
-55.9343
 20
129.763
 11
-55.7741
 21
129.612
  0
LINE
  8
0
 10
-55.7741
 20
129.612
 11
-55.634
 21
129.443
  0
LINE
  8
0
 10
-55.634
 20
129.443
 11
-55.5163
 21
129.257
  0
LINE
  8
0
 10
-55.5163
 20
129.257
 11
-55.4227
 21
129.059
  0
LINE
  8
0
 10
-55.4227
 20
129.059
 11
-55.3548
 21
128.85
  0
LINE
  8
0
 10
-55.3548
 20
128.85
 11
-55.3136
 21
128.634
  0
LINE
  8
0
 10
-55.3136
 20
128.634
 11
-55.2998
 21
128.414
  0
LINE
  8
0
 10
-55.2998
 20
128.414
 11
-55.3136
 21
128.195
  0
LINE
  8
0
 10
-55.3136
 20
128.195
 11
-55.3548
 21
127.979
  0
LINE
  8
0
 10
-55.3548
 20
127.979
 11
-55.4227
 21
127.77
  0
LINE
  8
0
 10
-55.4227
 20
127.77
 11
-55.5163
 21
127.571
  0
LINE
  8
0
 10
-55.5163
 20
127.571
 11
-55.634
 21
127.386
  0
LINE
  8
0
 10
-55.634
 20
127.386
 11
-55.7741
 21
127.216
  0
LINE
  8
0
 10
-55.7741
 20
127.216
 11
-55.9343
 21
127.066
  0
LINE
  8
0
 10
-55.9343
 20
127.066
 11
-56.1121
 21
126.937
  0
LINE
  8
0
 10
-56.1121
 20
126.937
 11
-56.3047
 21
126.831
  0
LINE
  8
0
 10
-56.3047
 20
126.831
 11
-56.509
 21
126.75
  0
LINE
  8
0
 10
-56.509
 20
126.75
 11
-56.7219
 21
126.695
  0
LINE
  8
0
 10
-56.7219
 20
126.695
 11
-56.9399
 21
126.668
  0
LINE
  8
0
 10
-56.9399
 20
126.668
 11
-57.1597
 21
126.668
  0
LINE
  8
0
 10
-171.259
 20
126.668
 11
-171.477
 21
126.695
  0
LINE
  8
0
 10
-171.477
 20
126.695
 11
-171.69
 21
126.75
  0
LINE
  8
0
 10
-171.69
 20
126.75
 11
-171.895
 21
126.831
  0
LINE
  8
0
 10
-171.895
 20
126.831
 11
-172.087
 21
126.937
  0
LINE
  8
0
 10
-172.087
 20
126.937
 11
-172.265
 21
127.066
  0
LINE
  8
0
 10
-172.265
 20
127.066
 11
-172.425
 21
127.216
  0
LINE
  8
0
 10
-172.425
 20
127.216
 11
-172.565
 21
127.386
  0
LINE
  8
0
 10
-172.565
 20
127.386
 11
-172.683
 21
127.571
  0
LINE
  8
0
 10
-172.683
 20
127.571
 11
-172.777
 21
127.77
  0
LINE
  8
0
 10
-172.777
 20
127.77
 11
-172.844
 21
127.979
  0
LINE
  8
0
 10
-172.844
 20
127.979
 11
-172.886
 21
128.195
  0
LINE
  8
0
 10
-172.886
 20
128.195
 11
-172.899
 21
128.414
  0
LINE
  8
0
 10
-172.899
 20
128.414
 11
-172.886
 21
128.634
  0
LINE
  8
0
 10
-172.886
 20
128.634
 11
-172.844
 21
128.85
  0
LINE
  8
0
 10
-172.844
 20
128.85
 11
-172.777
 21
129.059
  0
LINE
  8
0
 10
-172.777
 20
129.059
 11
-172.683
 21
129.257
  0
LINE
  8
0
 10
-172.683
 20
129.257
 11
-172.565
 21
129.443
  0
LINE
  8
0
 10
-172.565
 20
129.443
 11
-172.425
 21
129.612
  0
LINE
  8
0
 10
-172.425
 20
129.612
 11
-172.265
 21
129.763
  0
LINE
  8
0
 10
-172.265
 20
129.763
 11
-172.087
 21
129.892
  0
LINE
  8
0
 10
-172.087
 20
129.892
 11
-171.895
 21
129.998
  0
LINE
  8
0
 10
-171.895
 20
129.998
 11
-171.69
 21
130.079
  0
LINE
  8
0
 10
-171.69
 20
130.079
 11
-171.477
 21
130.133
  0
LINE
  8
0
 10
-171.477
 20
130.133
 11
-171.259
 21
130.161
  0
LINE
  8
0
 10
-171.259
 20
130.161
 11
-171.04
 21
130.161
  0
LINE
  8
0
 10
-171.04
 20
130.161
 11
-170.821
 21
130.133
  0
LINE
  8
0
 10
-170.821
 20
130.133
 11
-170.609
 21
130.079
  0
LINE
  8
0
 10
-170.609
 20
130.079
 11
-170.404
 21
129.998
  0
LINE
  8
0
 10
-170.404
 20
129.998
 11
-170.212
 21
129.892
  0
LINE
  8
0
 10
-170.212
 20
129.892
 11
-170.034
 21
129.763
  0
LINE
  8
0
 10
-170.034
 20
129.763
 11
-169.874
 21
129.612
  0
LINE
  8
0
 10
-169.874
 20
129.612
 11
-169.734
 21
129.443
  0
LINE
  8
0
 10
-169.734
 20
129.443
 11
-169.616
 21
129.257
  0
LINE
  8
0
 10
-169.616
 20
129.257
 11
-169.522
 21
129.059
  0
LINE
  8
0
 10
-169.522
 20
129.059
 11
-169.454
 21
128.85
  0
LINE
  8
0
 10
-169.454
 20
128.85
 11
-169.413
 21
128.634
  0
LINE
  8
0
 10
-169.413
 20
128.634
 11
-169.399
 21
128.414
  0
LINE
  8
0
 10
-169.399
 20
128.414
 11
-169.413
 21
128.195
  0
LINE
  8
0
 10
-169.413
 20
128.195
 11
-169.454
 21
127.979
  0
LINE
  8
0
 10
-169.454
 20
127.979
 11
-169.522
 21
127.77
  0
LINE
  8
0
 10
-169.522
 20
127.77
 11
-169.616
 21
127.571
  0
LINE
  8
0
 10
-169.616
 20
127.571
 11
-169.734
 21
127.386
  0
LINE
  8
0
 10
-169.734
 20
127.386
 11
-169.874
 21
127.216
  0
LINE
  8
0
 10
-169.874
 20
127.216
 11
-170.034
 21
127.066
  0
LINE
  8
0
 10
-170.034
 20
127.066
 11
-170.212
 21
126.937
  0
LINE
  8
0
 10
-170.212
 20
126.937
 11
-170.404
 21
126.831
  0
LINE
  8
0
 10
-170.404
 20
126.831
 11
-170.609
 21
126.75
  0
LINE
  8
0
 10
-170.609
 20
126.75
 11
-170.821
 21
126.695
  0
LINE
  8
0
 10
-170.821
 20
126.695
 11
-171.04
 21
126.668
  0
LINE
  8
0
 10
-171.04
 20
126.668
 11
-171.259
 21
126.668
  0
LINE
  8
0
 10
56.9399
 20
101.168
 11
56.7219
 21
101.195
  0
LINE
  8
0
 10
56.7219
 20
101.195
 11
56.509
 21
101.25
  0
LINE
  8
0
 10
56.509
 20
101.25
 11
56.3047
 21
101.331
  0
LINE
  8
0
 10
56.3047
 20
101.331
 11
56.1121
 21
101.437
  0
LINE
  8
0
 10
56.1121
 20
101.437
 11
55.9343
 21
101.566
  0
LINE
  8
0
 10
55.9343
 20
101.566
 11
55.7741
 21
101.716
  0
LINE
  8
0
 10
55.7741
 20
101.716
 11
55.634
 21
101.886
  0
LINE
  8
0
 10
55.634
 20
101.886
 11
55.5163
 21
102.071
  0
LINE
  8
0
 10
55.5163
 20
102.071
 11
55.4227
 21
102.27
  0
LINE
  8
0
 10
55.4227
 20
102.27
 11
55.3548
 21
102.479
  0
LINE
  8
0
 10
55.3548
 20
102.479
 11
55.3136
 21
102.695
  0
LINE
  8
0
 10
55.3136
 20
102.695
 11
55.2998
 21
102.914
  0
LINE
  8
0
 10
55.2998
 20
102.914
 11
55.3136
 21
103.134
  0
LINE
  8
0
 10
55.3136
 20
103.134
 11
55.3548
 21
103.35
  0
LINE
  8
0
 10
55.3548
 20
103.35
 11
55.4227
 21
103.559
  0
LINE
  8
0
 10
55.4227
 20
103.559
 11
55.5163
 21
103.757
  0
LINE
  8
0
 10
55.5163
 20
103.757
 11
55.634
 21
103.943
  0
LINE
  8
0
 10
55.634
 20
103.943
 11
55.7741
 21
104.112
  0
LINE
  8
0
 10
55.7741
 20
104.112
 11
55.9343
 21
104.263
  0
LINE
  8
0
 10
55.9343
 20
104.263
 11
56.1121
 21
104.392
  0
LINE
  8
0
 10
56.1121
 20
104.392
 11
56.3047
 21
104.498
  0
LINE
  8
0
 10
56.3047
 20
104.498
 11
56.509
 21
104.579
  0
LINE
  8
0
 10
56.509
 20
104.579
 11
56.7219
 21
104.633
  0
LINE
  8
0
 10
56.7219
 20
104.633
 11
56.9399
 21
104.661
  0
LINE
  8
0
 10
56.9399
 20
104.661
 11
57.1597
 21
104.661
  0
LINE
  8
0
 10
57.1597
 20
104.661
 11
57.3777
 21
104.633
  0
LINE
  8
0
 10
57.3777
 20
104.633
 11
57.5906
 21
104.579
  0
LINE
  8
0
 10
57.5906
 20
104.579
 11
57.7949
 21
104.498
  0
LINE
  8
0
 10
57.7949
 20
104.498
 11
57.9875
 21
104.392
  0
LINE
  8
0
 10
57.9875
 20
104.392
 11
58.1653
 21
104.263
  0
LINE
  8
0
 10
58.1653
 20
104.263
 11
58.3255
 21
104.112
  0
LINE
  8
0
 10
58.3255
 20
104.112
 11
58.4656
 21
103.943
  0
LINE
  8
0
 10
58.4656
 20
103.943
 11
58.5833
 21
103.757
  0
LINE
  8
0
 10
58.5833
 20
103.757
 11
58.6769
 21
103.559
  0
LINE
  8
0
 10
58.6769
 20
103.559
 11
58.7448
 21
103.35
  0
LINE
  8
0
 10
58.7448
 20
103.35
 11
58.786
 21
103.134
  0
LINE
  8
0
 10
58.786
 20
103.134
 11
58.7998
 21
102.914
  0
LINE
  8
0
 10
58.7998
 20
102.914
 11
58.786
 21
102.695
  0
LINE
  8
0
 10
58.786
 20
102.695
 11
58.7448
 21
102.479
  0
LINE
  8
0
 10
58.7448
 20
102.479
 11
58.6769
 21
102.27
  0
LINE
  8
0
 10
58.6769
 20
102.27
 11
58.5833
 21
102.071
  0
LINE
  8
0
 10
58.5833
 20
102.071
 11
58.4656
 21
101.886
  0
LINE
  8
0
 10
58.4656
 20
101.886
 11
58.3255
 21
101.716
  0
LINE
  8
0
 10
58.3255
 20
101.716
 11
58.1653
 21
101.566
  0
LINE
  8
0
 10
58.1653
 20
101.566
 11
57.9875
 21
101.437
  0
LINE
  8
0
 10
57.9875
 20
101.437
 11
57.7949
 21
101.331
  0
LINE
  8
0
 10
57.7949
 20
101.331
 11
57.5906
 21
101.25
  0
LINE
  8
0
 10
57.5906
 20
101.25
 11
57.3777
 21
101.195
  0
LINE
  8
0
 10
57.3777
 20
101.195
 11
57.1597
 21
101.168
  0
LINE
  8
0
 10
57.1597
 20
101.168
 11
56.9399
 21
101.168
  0
LINE
  8
0
 10
-57.1597
 20
101.168
 11
-57.3777
 21
101.195
  0
LINE
  8
0
 10
-57.3777
 20
101.195
 11
-57.5906
 21
101.25
  0
LINE
  8
0
 10
-57.5906
 20
101.25
 11
-57.7949
 21
101.331
  0
LINE
  8
0
 10
-57.7949
 20
101.331
 11
-57.9875
 21
101.437
  0
LINE
  8
0
 10
-57.9875
 20
101.437
 11
-58.1653
 21
101.566
  0
LINE
  8
0
 10
-58.1653
 20
101.566
 11
-58.3255
 21
101.716
  0
LINE
  8
0
 10
-58.3255
 20
101.716
 11
-58.4656
 21
101.886
  0
LINE
  8
0
 10
-58.4656
 20
101.886
 11
-58.5833
 21
102.071
  0
LINE
  8
0
 10
-58.5833
 20
102.071
 11
-58.6769
 21
102.27
  0
LINE
  8
0
 10
-58.6769
 20
102.27
 11
-58.7448
 21
102.479
  0
LINE
  8
0
 10
-58.7448
 20
102.479
 11
-58.786
 21
102.695
  0
LINE
  8
0
 10
-58.786
 20
102.695
 11
-58.7998
 21
102.914
  0
LINE
  8
0
 10
-58.7998
 20
102.914
 11
-58.786
 21
103.134
  0
LINE
  8
0
 10
-58.786
 20
103.134
 11
-58.7448
 21
103.35
  0
LINE
  8
0
 10
-58.7448
 20
103.35
 11
-58.6769
 21
103.559
  0
LINE
  8
0
 10
-58.6769
 20
103.559
 11
-58.5833
 21
103.757
  0
LINE
  8
0
 10
-58.5833
 20
103.757
 11
-58.4656
 21
103.943
  0
LINE
  8
0
 10
-58.4656
 20
103.943
 11
-58.3255
 21
104.112
  0
LINE
  8
0
 10
-58.3255
 20
104.112
 11
-58.1653
 21
104.263
  0
LINE
  8
0
 10
-58.1653
 20
104.263
 11
-57.9875
 21
104.392
  0
LINE
  8
0
 10
-57.9875
 20
104.392
 11
-57.7949
 21
104.498
  0
LINE
  8
0
 10
-57.7949
 20
104.498
 11
-57.5906
 21
104.579
  0
LINE
  8
0
 10
-57.5906
 20
104.579
 11
-57.3777
 21
104.633
  0
LINE
  8
0
 10
-57.3777
 20
104.633
 11
-57.1597
 21
104.661
  0
LINE
  8
0
 10
-57.1597
 20
104.661
 11
-56.9399
 21
104.661
  0
LINE
  8
0
 10
-56.9399
 20
104.661
 11
-56.7219
 21
104.633
  0
LINE
  8
0
 10
-56.7219
 20
104.633
 11
-56.509
 21
104.579
  0
LINE
  8
0
 10
-56.509
 20
104.579
 11
-56.3047
 21
104.498
  0
LINE
  8
0
 10
-56.3047
 20
104.498
 11
-56.1121
 21
104.392
  0
LINE
  8
0
 10
-56.1121
 20
104.392
 11
-55.9343
 21
104.263
  0
LINE
  8
0
 10
-55.9343
 20
104.263
 11
-55.7741
 21
104.112
  0
LINE
  8
0
 10
-55.7741
 20
104.112
 11
-55.634
 21
103.943
  0
LINE
  8
0
 10
-55.634
 20
103.943
 11
-55.5163
 21
103.757
  0
LINE
  8
0
 10
-55.5163
 20
103.757
 11
-55.4227
 21
103.559
  0
LINE
  8
0
 10
-55.4227
 20
103.559
 11
-55.3548
 21
103.35
  0
LINE
  8
0
 10
-55.3548
 20
103.35
 11
-55.3136
 21
103.134
  0
LINE
  8
0
 10
-55.3136
 20
103.134
 11
-55.2998
 21
102.914
  0
LINE
  8
0
 10
-55.2998
 20
102.914
 11
-55.3136
 21
102.695
  0
LINE
  8
0
 10
-55.3136
 20
102.695
 11
-55.3548
 21
102.479
  0
LINE
  8
0
 10
-55.3548
 20
102.479
 11
-55.4227
 21
102.27
  0
LINE
  8
0
 10
-55.4227
 20
102.27
 11
-55.5163
 21
102.071
  0
LINE
  8
0
 10
-55.5163
 20
102.071
 11
-55.634
 21
101.886
  0
LINE
  8
0
 10
-55.634
 20
101.886
 11
-55.7741
 21
101.716
  0
LINE
  8
0
 10
-55.7741
 20
101.716
 11
-55.9343
 21
101.566
  0
LINE
  8
0
 10
-55.9343
 20
101.566
 11
-56.1121
 21
101.437
  0
LINE
  8
0
 10
-56.1121
 20
101.437
 11
-56.3047
 21
101.331
  0
LINE
  8
0
 10
-56.3047
 20
101.331
 11
-56.509
 21
101.25
  0
LINE
  8
0
 10
-56.509
 20
101.25
 11
-56.7219
 21
101.195
  0
LINE
  8
0
 10
-56.7219
 20
101.195
 11
-56.9399
 21
101.168
  0
LINE
  8
0
 10
-56.9399
 20
101.168
 11
-57.1597
 21
101.168
  0
LINE
  8
0
 10
146.94
 20
101.168
 11
146.722
 21
101.195
  0
LINE
  8
0
 10
146.722
 20
101.195
 11
146.509
 21
101.25
  0
LINE
  8
0
 10
146.509
 20
101.25
 11
146.305
 21
101.331
  0
LINE
  8
0
 10
146.305
 20
101.331
 11
146.112
 21
101.437
  0
LINE
  8
0
 10
146.112
 20
101.437
 11
145.934
 21
101.566
  0
LINE
  8
0
 10
145.934
 20
101.566
 11
145.774
 21
101.716
  0
LINE
  8
0
 10
145.774
 20
101.716
 11
145.634
 21
101.886
  0
LINE
  8
0
 10
145.634
 20
101.886
 11
145.516
 21
102.071
  0
LINE
  8
0
 10
145.516
 20
102.071
 11
145.423
 21
102.27
  0
LINE
  8
0
 10
145.423
 20
102.27
 11
145.355
 21
102.479
  0
LINE
  8
0
 10
145.355
 20
102.479
 11
145.314
 21
102.695
  0
LINE
  8
0
 10
145.314
 20
102.695
 11
145.3
 21
102.914
  0
LINE
  8
0
 10
145.3
 20
102.914
 11
145.314
 21
103.134
  0
LINE
  8
0
 10
145.314
 20
103.134
 11
145.355
 21
103.35
  0
LINE
  8
0
 10
145.355
 20
103.35
 11
145.423
 21
103.559
  0
LINE
  8
0
 10
145.423
 20
103.559
 11
145.516
 21
103.757
  0
LINE
  8
0
 10
145.516
 20
103.757
 11
145.634
 21
103.943
  0
LINE
  8
0
 10
145.634
 20
103.943
 11
145.774
 21
104.112
  0
LINE
  8
0
 10
145.774
 20
104.112
 11
145.934
 21
104.263
  0
LINE
  8
0
 10
145.934
 20
104.263
 11
146.112
 21
104.392
  0
LINE
  8
0
 10
146.112
 20
104.392
 11
146.305
 21
104.498
  0
LINE
  8
0
 10
146.305
 20
104.498
 11
146.509
 21
104.579
  0
LINE
  8
0
 10
146.509
 20
104.579
 11
146.722
 21
104.633
  0
LINE
  8
0
 10
146.722
 20
104.633
 11
146.94
 21
104.661
  0
LINE
  8
0
 10
146.94
 20
104.661
 11
147.16
 21
104.661
  0
LINE
  8
0
 10
147.16
 20
104.661
 11
147.378
 21
104.633
  0
LINE
  8
0
 10
147.378
 20
104.633
 11
147.591
 21
104.579
  0
LINE
  8
0
 10
147.591
 20
104.579
 11
147.795
 21
104.498
  0
LINE
  8
0
 10
147.795
 20
104.498
 11
147.987
 21
104.392
  0
LINE
  8
0
 10
147.987
 20
104.392
 11
148.165
 21
104.263
  0
LINE
  8
0
 10
148.165
 20
104.263
 11
148.325
 21
104.112
  0
LINE
  8
0
 10
148.325
 20
104.112
 11
148.466
 21
103.943
  0
LINE
  8
0
 10
148.466
 20
103.943
 11
148.583
 21
103.757
  0
LINE
  8
0
 10
148.583
 20
103.757
 11
148.677
 21
103.559
  0
LINE
  8
0
 10
148.677
 20
103.559
 11
148.745
 21
103.35
  0
LINE
  8
0
 10
148.745
 20
103.35
 11
148.786
 21
103.134
  0
LINE
  8
0
 10
148.786
 20
103.134
 11
148.8
 21
102.914
  0
LINE
  8
0
 10
148.8
 20
102.914
 11
148.786
 21
102.695
  0
LINE
  8
0
 10
148.786
 20
102.695
 11
148.745
 21
102.479
  0
LINE
  8
0
 10
148.745
 20
102.479
 11
148.677
 21
102.27
  0
LINE
  8
0
 10
148.677
 20
102.27
 11
148.583
 21
102.071
  0
LINE
  8
0
 10
148.583
 20
102.071
 11
148.466
 21
101.886
  0
LINE
  8
0
 10
148.466
 20
101.886
 11
148.325
 21
101.716
  0
LINE
  8
0
 10
148.325
 20
101.716
 11
148.165
 21
101.566
  0
LINE
  8
0
 10
148.165
 20
101.566
 11
147.987
 21
101.437
  0
LINE
  8
0
 10
147.987
 20
101.437
 11
147.795
 21
101.331
  0
LINE
  8
0
 10
147.795
 20
101.331
 11
147.591
 21
101.25
  0
LINE
  8
0
 10
147.591
 20
101.25
 11
147.378
 21
101.195
  0
LINE
  8
0
 10
147.378
 20
101.195
 11
147.16
 21
101.168
  0
LINE
  8
0
 10
147.16
 20
101.168
 11
146.94
 21
101.168
  0
LINE
  8
0
 10
-147.16
 20
101.168
 11
-147.378
 21
101.195
  0
LINE
  8
0
 10
-147.378
 20
101.195
 11
-147.591
 21
101.25
  0
LINE
  8
0
 10
-147.591
 20
101.25
 11
-147.795
 21
101.331
  0
LINE
  8
0
 10
-147.795
 20
101.331
 11
-147.987
 21
101.437
  0
LINE
  8
0
 10
-147.987
 20
101.437
 11
-148.165
 21
101.566
  0
LINE
  8
0
 10
-148.165
 20
101.566
 11
-148.325
 21
101.716
  0
LINE
  8
0
 10
-148.325
 20
101.716
 11
-148.466
 21
101.886
  0
LINE
  8
0
 10
-148.466
 20
101.886
 11
-148.583
 21
102.071
  0
LINE
  8
0
 10
-148.583
 20
102.071
 11
-148.677
 21
102.27
  0
LINE
  8
0
 10
-148.677
 20
102.27
 11
-148.745
 21
102.479
  0
LINE
  8
0
 10
-148.745
 20
102.479
 11
-148.786
 21
102.695
  0
LINE
  8
0
 10
-148.786
 20
102.695
 11
-148.8
 21
102.914
  0
LINE
  8
0
 10
-148.8
 20
102.914
 11
-148.786
 21
103.134
  0
LINE
  8
0
 10
-148.786
 20
103.134
 11
-148.745
 21
103.35
  0
LINE
  8
0
 10
-148.745
 20
103.35
 11
-148.677
 21
103.559
  0
LINE
  8
0
 10
-148.677
 20
103.559
 11
-148.583
 21
103.757
  0
LINE
  8
0
 10
-148.583
 20
103.757
 11
-148.466
 21
103.943
  0
LINE
  8
0
 10
-148.466
 20
103.943
 11
-148.325
 21
104.112
  0
LINE
  8
0
 10
-148.325
 20
104.112
 11
-148.165
 21
104.263
  0
LINE
  8
0
 10
-148.165
 20
104.263
 11
-147.987
 21
104.392
  0
LINE
  8
0
 10
-147.987
 20
104.392
 11
-147.795
 21
104.498
  0
LINE
  8
0
 10
-147.795
 20
104.498
 11
-147.591
 21
104.579
  0
LINE
  8
0
 10
-147.591
 20
104.579
 11
-147.378
 21
104.633
  0
LINE
  8
0
 10
-147.378
 20
104.633
 11
-147.16
 21
104.661
  0
LINE
  8
0
 10
-147.16
 20
104.661
 11
-146.94
 21
104.661
  0
LINE
  8
0
 10
-146.94
 20
104.661
 11
-146.722
 21
104.633
  0
LINE
  8
0
 10
-146.722
 20
104.633
 11
-146.509
 21
104.579
  0
LINE
  8
0
 10
-146.509
 20
104.579
 11
-146.305
 21
104.498
  0
LINE
  8
0
 10
-146.305
 20
104.498
 11
-146.112
 21
104.392
  0
LINE
  8
0
 10
-146.112
 20
104.392
 11
-145.934
 21
104.263
  0
LINE
  8
0
 10
-145.934
 20
104.263
 11
-145.774
 21
104.112
  0
LINE
  8
0
 10
-145.774
 20
104.112
 11
-145.634
 21
103.943
  0
LINE
  8
0
 10
-145.634
 20
103.943
 11
-145.516
 21
103.757
  0
LINE
  8
0
 10
-145.516
 20
103.757
 11
-145.423
 21
103.559
  0
LINE
  8
0
 10
-145.423
 20
103.559
 11
-145.355
 21
103.35
  0
LINE
  8
0
 10
-145.355
 20
103.35
 11
-145.314
 21
103.134
  0
LINE
  8
0
 10
-145.314
 20
103.134
 11
-145.3
 21
102.914
  0
LINE
  8
0
 10
-145.3
 20
102.914
 11
-145.314
 21
102.695
  0
LINE
  8
0
 10
-145.314
 20
102.695
 11
-145.355
 21
102.479
  0
LINE
  8
0
 10
-145.355
 20
102.479
 11
-145.423
 21
102.27
  0
LINE
  8
0
 10
-145.423
 20
102.27
 11
-145.516
 21
102.071
  0
LINE
  8
0
 10
-145.516
 20
102.071
 11
-145.634
 21
101.886
  0
LINE
  8
0
 10
-145.634
 20
101.886
 11
-145.774
 21
101.716
  0
LINE
  8
0
 10
-145.774
 20
101.716
 11
-145.934
 21
101.566
  0
LINE
  8
0
 10
-145.934
 20
101.566
 11
-146.112
 21
101.437
  0
LINE
  8
0
 10
-146.112
 20
101.437
 11
-146.305
 21
101.331
  0
LINE
  8
0
 10
-146.305
 20
101.331
 11
-146.509
 21
101.25
  0
LINE
  8
0
 10
-146.509
 20
101.25
 11
-146.722
 21
101.195
  0
LINE
  8
0
 10
-146.722
 20
101.195
 11
-146.94
 21
101.168
  0
LINE
  8
0
 10
-146.94
 20
101.168
 11
-147.16
 21
101.168
  0
LINE
  8
0
 10
56.9399
 20
2.75345
 11
56.7219
 21
2.78099
  0
LINE
  8
0
 10
56.7219
 20
2.78099
 11
56.509
 21
2.83565
  0
LINE
  8
0
 10
56.509
 20
2.83565
 11
56.3047
 21
2.91655
  0
LINE
  8
0
 10
56.3047
 20
2.91655
 11
56.1121
 21
3.02242
  0
LINE
  8
0
 10
56.1121
 20
3.02242
 11
55.9343
 21
3.1516
  0
LINE
  8
0
 10
55.9343
 20
3.1516
 11
55.7741
 21
3.30203
  0
LINE
  8
0
 10
55.7741
 20
3.30203
 11
55.634
 21
3.47137
  0
LINE
  8
0
 10
55.634
 20
3.47137
 11
55.5163
 21
3.65692
  0
LINE
  8
0
 10
55.5163
 20
3.65692
 11
55.4227
 21
3.85577
  0
LINE
  8
0
 10
55.4227
 20
3.85577
 11
55.3548
 21
4.06479
  0
LINE
  8
0
 10
55.3548
 20
4.06479
 11
55.3136
 21
4.28065
  0
LINE
  8
0
 10
55.3136
 20
4.28065
 11
55.2998
 21
4.5
  0
LINE
  8
0
 10
55.2998
 20
4.5
 11
55.3136
 21
4.71933
  0
LINE
  8
0
 10
55.3136
 20
4.71933
 11
55.3548
 21
4.9352
  0
LINE
  8
0
 10
55.3548
 20
4.9352
 11
55.4227
 21
5.14421
  0
LINE
  8
0
 10
55.4227
 20
5.14421
 11
55.5163
 21
5.34306
  0
LINE
  8
0
 10
55.5163
 20
5.34306
 11
55.634
 21
5.52861
  0
LINE
  8
0
 10
55.634
 20
5.52861
 11
55.7741
 21
5.69795
  0
LINE
  8
0
 10
55.7741
 20
5.69795
 11
55.9343
 21
5.84839
  0
LINE
  8
0
 10
55.9343
 20
5.84839
 11
56.1121
 21
5.97757
  0
LINE
  8
0
 10
56.1121
 20
5.97757
 11
56.3047
 21
6.08344
  0
LINE
  8
0
 10
56.3047
 20
6.08344
 11
56.509
 21
6.16434
  0
LINE
  8
0
 10
56.509
 20
6.16434
 11
56.7219
 21
6.21899
  0
LINE
  8
0
 10
56.7219
 20
6.21899
 11
56.9399
 21
6.24654
  0
LINE
  8
0
 10
56.9399
 20
6.24654
 11
57.1597
 21
6.24654
  0
LINE
  8
0
 10
57.1597
 20
6.24654
 11
57.3777
 21
6.21899
  0
LINE
  8
0
 10
57.3777
 20
6.21899
 11
57.5906
 21
6.16434
  0
LINE
  8
0
 10
57.5906
 20
6.16434
 11
57.7949
 21
6.08344
  0
LINE
  8
0
 10
57.7949
 20
6.08344
 11
57.9875
 21
5.97757
  0
LINE
  8
0
 10
57.9875
 20
5.97757
 11
58.1653
 21
5.84839
  0
LINE
  8
0
 10
58.1653
 20
5.84839
 11
58.3255
 21
5.69795
  0
LINE
  8
0
 10
58.3255
 20
5.69795
 11
58.4656
 21
5.52861
  0
LINE
  8
0
 10
58.4656
 20
5.52861
 11
58.5833
 21
5.34306
  0
LINE
  8
0
 10
58.5833
 20
5.34306
 11
58.6769
 21
5.14421
  0
LINE
  8
0
 10
58.6769
 20
5.14421
 11
58.7448
 21
4.9352
  0
LINE
  8
0
 10
58.7448
 20
4.9352
 11
58.786
 21
4.71933
  0
LINE
  8
0
 10
58.786
 20
4.71933
 11
58.7998
 21
4.5
  0
LINE
  8
0
 10
58.7998
 20
4.5
 11
58.786
 21
4.28065
  0
LINE
  8
0
 10
58.786
 20
4.28065
 11
58.7448
 21
4.06479
  0
LINE
  8
0
 10
58.7448
 20
4.06479
 11
58.6769
 21
3.85577
  0
LINE
  8
0
 10
58.6769
 20
3.85577
 11
58.5833
 21
3.65692
  0
LINE
  8
0
 10
58.5833
 20
3.65692
 11
58.4656
 21
3.47137
  0
LINE
  8
0
 10
58.4656
 20
3.47137
 11
58.3255
 21
3.30203
  0
LINE
  8
0
 10
58.3255
 20
3.30203
 11
58.1653
 21
3.1516
  0
LINE
  8
0
 10
58.1653
 20
3.1516
 11
57.9875
 21
3.02242
  0
LINE
  8
0
 10
57.9875
 20
3.02242
 11
57.7949
 21
2.91655
  0
LINE
  8
0
 10
57.7949
 20
2.91655
 11
57.5906
 21
2.83565
  0
LINE
  8
0
 10
57.5906
 20
2.83565
 11
57.3777
 21
2.78099
  0
LINE
  8
0
 10
57.3777
 20
2.78099
 11
57.1597
 21
2.75345
  0
LINE
  8
0
 10
57.1597
 20
2.75345
 11
56.9399
 21
2.75345
  0
LINE
  8
0
 10
171.04
 20
2.75345
 11
170.821
 21
2.78099
  0
LINE
  8
0
 10
170.821
 20
2.78099
 11
170.609
 21
2.83565
  0
LINE
  8
0
 10
170.609
 20
2.83565
 11
170.404
 21
2.91655
  0
LINE
  8
0
 10
170.404
 20
2.91655
 11
170.212
 21
3.02242
  0
LINE
  8
0
 10
170.212
 20
3.02242
 11
170.034
 21
3.1516
  0
LINE
  8
0
 10
170.034
 20
3.1516
 11
169.874
 21
3.30203
  0
LINE
  8
0
 10
169.874
 20
3.30203
 11
169.734
 21
3.47137
  0
LINE
  8
0
 10
169.734
 20
3.47137
 11
169.616
 21
3.65692
  0
LINE
  8
0
 10
169.616
 20
3.65692
 11
169.522
 21
3.85577
  0
LINE
  8
0
 10
169.522
 20
3.85577
 11
169.454
 21
4.06479
  0
LINE
  8
0
 10
169.454
 20
4.06479
 11
169.413
 21
4.28065
  0
LINE
  8
0
 10
169.413
 20
4.28065
 11
169.399
 21
4.5
  0
LINE
  8
0
 10
169.399
 20
4.5
 11
169.413
 21
4.71933
  0
LINE
  8
0
 10
169.413
 20
4.71933
 11
169.454
 21
4.9352
  0
LINE
  8
0
 10
169.454
 20
4.9352
 11
169.522
 21
5.14421
  0
LINE
  8
0
 10
169.522
 20
5.14421
 11
169.616
 21
5.34306
  0
LINE
  8
0
 10
169.616
 20
5.34306
 11
169.734
 21
5.52861
  0
LINE
  8
0
 10
169.734
 20
5.52861
 11
169.874
 21
5.69795
  0
LINE
  8
0
 10
169.874
 20
5.69795
 11
170.034
 21
5.84839
  0
LINE
  8
0
 10
170.034
 20
5.84839
 11
170.212
 21
5.97757
  0
LINE
  8
0
 10
170.212
 20
5.97757
 11
170.404
 21
6.08344
  0
LINE
  8
0
 10
170.404
 20
6.08344
 11
170.609
 21
6.16434
  0
LINE
  8
0
 10
170.609
 20
6.16434
 11
170.821
 21
6.21899
  0
LINE
  8
0
 10
170.821
 20
6.21899
 11
171.04
 21
6.24654
  0
LINE
  8
0
 10
171.04
 20
6.24654
 11
171.259
 21
6.24654
  0
LINE
  8
0
 10
171.259
 20
6.24654
 11
171.477
 21
6.21899
  0
LINE
  8
0
 10
171.477
 20
6.21899
 11
171.69
 21
6.16434
  0
LINE
  8
0
 10
171.69
 20
6.16434
 11
171.895
 21
6.08344
  0
LINE
  8
0
 10
171.895
 20
6.08344
 11
172.087
 21
5.97757
  0
LINE
  8
0
 10
172.087
 20
5.97757
 11
172.265
 21
5.84839
  0
LINE
  8
0
 10
172.265
 20
5.84839
 11
172.425
 21
5.69795
  0
LINE
  8
0
 10
172.425
 20
5.69795
 11
172.565
 21
5.52861
  0
LINE
  8
0
 10
172.565
 20
5.52861
 11
172.683
 21
5.34306
  0
LINE
  8
0
 10
172.683
 20
5.34306
 11
172.777
 21
5.14421
  0
LINE
  8
0
 10
172.777
 20
5.14421
 11
172.844
 21
4.9352
  0
LINE
  8
0
 10
172.844
 20
4.9352
 11
172.886
 21
4.71933
  0
LINE
  8
0
 10
172.886
 20
4.71933
 11
172.899
 21
4.5
  0
LINE
  8
0
 10
172.899
 20
4.5
 11
172.886
 21
4.28065
  0
LINE
  8
0
 10
172.886
 20
4.28065
 11
172.844
 21
4.06479
  0
LINE
  8
0
 10
172.844
 20
4.06479
 11
172.777
 21
3.85577
  0
LINE
  8
0
 10
172.777
 20
3.85577
 11
172.683
 21
3.65692
  0
LINE
  8
0
 10
172.683
 20
3.65692
 11
172.565
 21
3.47137
  0
LINE
  8
0
 10
172.565
 20
3.47137
 11
172.425
 21
3.30203
  0
LINE
  8
0
 10
172.425
 20
3.30203
 11
172.265
 21
3.1516
  0
LINE
  8
0
 10
172.265
 20
3.1516
 11
172.087
 21
3.02242
  0
LINE
  8
0
 10
172.087
 20
3.02242
 11
171.895
 21
2.91655
  0
LINE
  8
0
 10
171.895
 20
2.91655
 11
171.69
 21
2.83565
  0
LINE
  8
0
 10
171.69
 20
2.83565
 11
171.477
 21
2.78099
  0
LINE
  8
0
 10
171.477
 20
2.78099
 11
171.259
 21
2.75345
  0
LINE
  8
0
 10
171.259
 20
2.75345
 11
171.04
 21
2.75345
  0
LINE
  8
0
 10
-57.1597
 20
2.75345
 11
-57.3777
 21
2.78099
  0
LINE
  8
0
 10
-57.3777
 20
2.78099
 11
-57.5906
 21
2.83565
  0
LINE
  8
0
 10
-57.5906
 20
2.83565
 11
-57.7949
 21
2.91655
  0
LINE
  8
0
 10
-57.7949
 20
2.91655
 11
-57.9875
 21
3.02242
  0
LINE
  8
0
 10
-57.9875
 20
3.02242
 11
-58.1653
 21
3.1516
  0
LINE
  8
0
 10
-58.1653
 20
3.1516
 11
-58.3255
 21
3.30203
  0
LINE
  8
0
 10
-58.3255
 20
3.30203
 11
-58.4656
 21
3.47137
  0
LINE
  8
0
 10
-58.4656
 20
3.47137
 11
-58.5833
 21
3.65692
  0
LINE
  8
0
 10
-58.5833
 20
3.65692
 11
-58.6769
 21
3.85577
  0
LINE
  8
0
 10
-58.6769
 20
3.85577
 11
-58.7448
 21
4.06479
  0
LINE
  8
0
 10
-58.7448
 20
4.06479
 11
-58.786
 21
4.28065
  0
LINE
  8
0
 10
-58.786
 20
4.28065
 11
-58.7998
 21
4.5
  0
LINE
  8
0
 10
-58.7998
 20
4.5
 11
-58.786
 21
4.71933
  0
LINE
  8
0
 10
-58.786
 20
4.71933
 11
-58.7448
 21
4.9352
  0
LINE
  8
0
 10
-58.7448
 20
4.9352
 11
-58.6769
 21
5.14421
  0
LINE
  8
0
 10
-58.6769
 20
5.14421
 11
-58.5833
 21
5.34306
  0
LINE
  8
0
 10
-58.5833
 20
5.34306
 11
-58.4656
 21
5.52861
  0
LINE
  8
0
 10
-58.4656
 20
5.52861
 11
-58.3255
 21
5.69795
  0
LINE
  8
0
 10
-58.3255
 20
5.69795
 11
-58.1653
 21
5.84839
  0
LINE
  8
0
 10
-58.1653
 20
5.84839
 11
-57.9875
 21
5.97757
  0
LINE
  8
0
 10
-57.9875
 20
5.97757
 11
-57.7949
 21
6.08344
  0
LINE
  8
0
 10
-57.7949
 20
6.08344
 11
-57.5906
 21
6.16434
  0
LINE
  8
0
 10
-57.5906
 20
6.16434
 11
-57.3777
 21
6.21899
  0
LINE
  8
0
 10
-57.3777
 20
6.21899
 11
-57.1597
 21
6.24654
  0
LINE
  8
0
 10
-57.1597
 20
6.24654
 11
-56.9399
 21
6.24654
  0
LINE
  8
0
 10
-56.9399
 20
6.24654
 11
-56.7219
 21
6.21899
  0
LINE
  8
0
 10
-56.7219
 20
6.21899
 11
-56.509
 21
6.16434
  0
LINE
  8
0
 10
-56.509
 20
6.16434
 11
-56.3047
 21
6.08344
  0
LINE
  8
0
 10
-56.3047
 20
6.08344
 11
-56.1121
 21
5.97757
  0
LINE
  8
0
 10
-56.1121
 20
5.97757
 11
-55.9343
 21
5.84839
  0
LINE
  8
0
 10
-55.9343
 20
5.84839
 11
-55.7741
 21
5.69795
  0
LINE
  8
0
 10
-55.7741
 20
5.69795
 11
-55.634
 21
5.52861
  0
LINE
  8
0
 10
-55.634
 20
5.52861
 11
-55.5163
 21
5.34306
  0
LINE
  8
0
 10
-55.5163
 20
5.34306
 11
-55.4227
 21
5.14421
  0
LINE
  8
0
 10
-55.4227
 20
5.14421
 11
-55.3548
 21
4.9352
  0
LINE
  8
0
 10
-55.3548
 20
4.9352
 11
-55.3136
 21
4.71933
  0
LINE
  8
0
 10
-55.3136
 20
4.71933
 11
-55.2998
 21
4.5
  0
LINE
  8
0
 10
-55.2998
 20
4.5
 11
-55.3136
 21
4.28065
  0
LINE
  8
0
 10
-55.3136
 20
4.28065
 11
-55.3548
 21
4.06479
  0
LINE
  8
0
 10
-55.3548
 20
4.06479
 11
-55.4227
 21
3.85577
  0
LINE
  8
0
 10
-55.4227
 20
3.85577
 11
-55.5163
 21
3.65692
  0
LINE
  8
0
 10
-55.5163
 20
3.65692
 11
-55.634
 21
3.47137
  0
LINE
  8
0
 10
-55.634
 20
3.47137
 11
-55.7741
 21
3.30203
  0
LINE
  8
0
 10
-55.7741
 20
3.30203
 11
-55.9343
 21
3.1516
  0
LINE
  8
0
 10
-55.9343
 20
3.1516
 11
-56.1121
 21
3.02242
  0
LINE
  8
0
 10
-56.1121
 20
3.02242
 11
-56.3047
 21
2.91655
  0
LINE
  8
0
 10
-56.3047
 20
2.91655
 11
-56.509
 21
2.83565
  0
LINE
  8
0
 10
-56.509
 20
2.83565
 11
-56.7219
 21
2.78099
  0
LINE
  8
0
 10
-56.7219
 20
2.78099
 11
-56.9399
 21
2.75345
  0
LINE
  8
0
 10
-56.9399
 20
2.75345
 11
-57.1597
 21
2.75345
  0
LINE
  8
0
 10
-171.259
 20
2.75345
 11
-171.477
 21
2.78099
  0
LINE
  8
0
 10
-171.477
 20
2.78099
 11
-171.69
 21
2.83565
  0
LINE
  8
0
 10
-171.69
 20
2.83565
 11
-171.895
 21
2.91655
  0
LINE
  8
0
 10
-171.895
 20
2.91655
 11
-172.087
 21
3.02242
  0
LINE
  8
0
 10
-172.087
 20
3.02242
 11
-172.265
 21
3.1516
  0
LINE
  8
0
 10
-172.265
 20
3.1516
 11
-172.425
 21
3.30203
  0
LINE
  8
0
 10
-172.425
 20
3.30203
 11
-172.565
 21
3.47137
  0
LINE
  8
0
 10
-172.565
 20
3.47137
 11
-172.683
 21
3.65692
  0
LINE
  8
0
 10
-172.683
 20
3.65692
 11
-172.777
 21
3.85577
  0
LINE
  8
0
 10
-172.777
 20
3.85577
 11
-172.844
 21
4.06479
  0
LINE
  8
0
 10
-172.844
 20
4.06479
 11
-172.886
 21
4.28065
  0
LINE
  8
0
 10
-172.886
 20
4.28065
 11
-172.899
 21
4.5
  0
LINE
  8
0
 10
-172.899
 20
4.5
 11
-172.886
 21
4.71933
  0
LINE
  8
0
 10
-172.886
 20
4.71933
 11
-172.844
 21
4.9352
  0
LINE
  8
0
 10
-172.844
 20
4.9352
 11
-172.777
 21
5.14421
  0
LINE
  8
0
 10
-172.777
 20
5.14421
 11
-172.683
 21
5.34306
  0
LINE
  8
0
 10
-172.683
 20
5.34306
 11
-172.565
 21
5.52861
  0
LINE
  8
0
 10
-172.565
 20
5.52861
 11
-172.425
 21
5.69795
  0
LINE
  8
0
 10
-172.425
 20
5.69795
 11
-172.265
 21
5.84839
  0
LINE
  8
0
 10
-172.265
 20
5.84839
 11
-172.087
 21
5.97757
  0
LINE
  8
0
 10
-172.087
 20
5.97757
 11
-171.895
 21
6.08344
  0
LINE
  8
0
 10
-171.895
 20
6.08344
 11
-171.69
 21
6.16434
  0
LINE
  8
0
 10
-171.69
 20
6.16434
 11
-171.477
 21
6.21899
  0
LINE
  8
0
 10
-171.477
 20
6.21899
 11
-171.259
 21
6.24654
  0
LINE
  8
0
 10
-171.259
 20
6.24654
 11
-171.04
 21
6.24654
  0
LINE
  8
0
 10
-171.04
 20
6.24654
 11
-170.821
 21
6.21899
  0
LINE
  8
0
 10
-170.821
 20
6.21899
 11
-170.609
 21
6.16434
  0
LINE
  8
0
 10
-170.609
 20
6.16434
 11
-170.404
 21
6.08344
  0
LINE
  8
0
 10
-170.404
 20
6.08344
 11
-170.212
 21
5.97757
  0
LINE
  8
0
 10
-170.212
 20
5.97757
 11
-170.034
 21
5.84839
  0
LINE
  8
0
 10
-170.034
 20
5.84839
 11
-169.874
 21
5.69795
  0
LINE
  8
0
 10
-169.874
 20
5.69795
 11
-169.734
 21
5.52861
  0
LINE
  8
0
 10
-169.734
 20
5.52861
 11
-169.616
 21
5.34306
  0
LINE
  8
0
 10
-169.616
 20
5.34306
 11
-169.522
 21
5.14421
  0
LINE
  8
0
 10
-169.522
 20
5.14421
 11
-169.454
 21
4.9352
  0
LINE
  8
0
 10
-169.454
 20
4.9352
 11
-169.413
 21
4.71933
  0
LINE
  8
0
 10
-169.413
 20
4.71933
 11
-169.399
 21
4.5
  0
LINE
  8
0
 10
-169.399
 20
4.5
 11
-169.413
 21
4.28065
  0
LINE
  8
0
 10
-169.413
 20
4.28065
 11
-169.454
 21
4.06479
  0
LINE
  8
0
 10
-169.454
 20
4.06479
 11
-169.522
 21
3.85577
  0
LINE
  8
0
 10
-169.522
 20
3.85577
 11
-169.616
 21
3.65692
  0
LINE
  8
0
 10
-169.616
 20
3.65692
 11
-169.734
 21
3.47137
  0
LINE
  8
0
 10
-169.734
 20
3.47137
 11
-169.874
 21
3.30203
  0
LINE
  8
0
 10
-169.874
 20
3.30203
 11
-170.034
 21
3.1516
  0
LINE
  8
0
 10
-170.034
 20
3.1516
 11
-170.212
 21
3.02242
  0
LINE
  8
0
 10
-170.212
 20
3.02242
 11
-170.404
 21
2.91655
  0
LINE
  8
0
 10
-170.404
 20
2.91655
 11
-170.609
 21
2.83565
  0
LINE
  8
0
 10
-170.609
 20
2.83565
 11
-170.821
 21
2.78099
  0
LINE
  8
0
 10
-170.821
 20
2.78099
 11
-171.04
 21
2.75345
  0
LINE
  8
0
 10
-171.04
 20
2.75345
 11
-171.259
 21
2.75345
  0
ENDSEC
  0
SECTION
  2
OBJECTS
  0
DICTIONARY
  0
ENDSEC
  0
EOF
