  0
SECTION
  2
BLOCKS
  0
ENDSEC
  0
SECTION
  2
ENTITIES
  0
LINE
  8
0
 10
174.024
 20
0.0354156
 11
174.267
 21
0.0978851
  0
LINE
  8
0
 10
174.267
 20
0.0978851
 11
174.501
 21
0.190338
  0
LINE
  8
0
 10
174.501
 20
0.190338
 11
174.721
 21
0.31134
  0
LINE
  8
0
 10
174.721
 20
0.31134
 11
174.924
 21
0.458969
  0
LINE
  8
0
 10
174.924
 20
0.458969
 11
175.107
 21
0.630905
  0
LINE
  8
0
 10
175.107
 20
0.630905
 11
175.267
 21
0.824417
  0
LINE
  8
0
 10
175.267
 20
0.824417
 11
175.402
 21
1.03648
  0
LINE
  8
0
 10
175.402
 20
1.03648
 11
175.509
 21
1.26375
  0
LINE
  8
0
 10
175.509
 20
1.26375
 11
175.587
 21
1.50261
  0
LINE
  8
0
 10
175.587
 20
1.50261
 11
175.634
 21
1.74933
  0
LINE
  8
0
 10
175.634
 20
1.74933
 11
175.649
 21
2
  0
LINE
  8
0
 10
175.649
 20
2
 11
175.649
 21
130.914
  0
LINE
  8
0
 10
175.649
 20
130.914
 11
175.634
 21
131.165
  0
LINE
  8
0
 10
175.634
 20
131.165
 11
175.587
 21
131.412
  0
LINE
  8
0
 10
175.587
 20
131.412
 11
175.509
 21
131.651
  0
LINE
  8
0
 10
175.509
 20
131.651
 11
175.402
 21
131.878
  0
LINE
  8
0
 10
175.402
 20
131.878
 11
175.267
 21
132.09
  0
LINE
  8
0
 10
175.267
 20
132.09
 11
175.107
 21
132.283
  0
LINE
  8
0
 10
175.107
 20
132.283
 11
174.924
 21
132.455
  0
LINE
  8
0
 10
174.924
 20
132.455
 11
174.721
 21
132.603
  0
LINE
  8
0
 10
174.721
 20
132.603
 11
174.501
 21
132.724
  0
LINE
  8
0
 10
174.501
 20
132.724
 11
174.267
 21
132.816
  0
LINE
  8
0
 10
174.267
 20
132.816
 11
174.024
 21
132.879
  0
LINE
  8
0
 10
174.024
 20
132.879
 11
173.775
 21
132.91
  0
LINE
  8
0
 10
173.775
 20
132.91
 11
-173.775
 21
132.91
  0
LINE
  8
0
 10
-173.775
 20
132.91
 11
-174.024
 21
132.879
  0
LINE
  8
0
 10
-174.024
 20
132.879
 11
-174.267
 21
132.816
  0
LINE
  8
0
 10
-174.267
 20
132.816
 11
-174.501
 21
132.724
  0
LINE
  8
0
 10
-174.501
 20
132.724
 11
-174.721
 21
132.603
  0
LINE
  8
0
 10
-174.721
 20
132.603
 11
-174.924
 21
132.455
  0
LINE
  8
0
 10
-174.924
 20
132.455
 11
-175.107
 21
132.283
  0
LINE
  8
0
 10
-175.107
 20
132.283
 11
-175.267
 21
132.09
  0
LINE
  8
0
 10
-175.267
 20
132.09
 11
-175.402
 21
131.878
  0
LINE
  8
0
 10
-175.402
 20
131.878
 11
-175.509
 21
131.651
  0
LINE
  8
0
 10
-175.509
 20
131.651
 11
-175.587
 21
131.412
  0
LINE
  8
0
 10
-175.587
 20
131.412
 11
-175.634
 21
131.165
  0
LINE
  8
0
 10
-175.634
 20
131.165
 11
-175.649
 21
130.914
  0
LINE
  8
0
 10
-175.649
 20
130.914
 11
-175.649
 21
2
  0
LINE
  8
0
 10
-175.649
 20
2
 11
-175.634
 21
1.74933
  0
LINE
  8
0
 10
-175.634
 20
1.74933
 11
-175.587
 21
1.50261
  0
LINE
  8
0
 10
-175.587
 20
1.50261
 11
-175.509
 21
1.26375
  0
LINE
  8
0
 10
-175.509
 20
1.26375
 11
-175.402
 21
1.03648
  0
LINE
  8
0
 10
-175.402
 20
1.03648
 11
-175.267
 21
0.824417
  0
LINE
  8
0
 10
-175.267
 20
0.824417
 11
-175.107
 21
0.630905
  0
LINE
  8
0
 10
-175.107
 20
0.630905
 11
-174.924
 21
0.458969
  0
LINE
  8
0
 10
-174.924
 20
0.458969
 11
-174.721
 21
0.31134
  0
LINE
  8
0
 10
-174.721
 20
0.31134
 11
-174.501
 21
0.190338
  0
LINE
  8
0
 10
-174.501
 20
0.190338
 11
-174.267
 21
0.0978851
  0
LINE
  8
0
 10
-174.267
 20
0.0978851
 11
-174.024
 21
0.0354156
  0
LINE
  8
0
 10
-174.024
 20
0.0354156
 11
-173.775
 21
0.00393677
  0
LINE
  8
0
 10
-173.775
 20
0.00393677
 11
173.775
 21
0.00393677
  0
LINE
  8
0
 10
173.775
 20
0.00393677
 11
174.024
 21
0.0354156
  0
LINE
  8
0
 10
-168.264
 20
65.7372
 11
-168.45
 21
65.7609
  0
LINE
  8
0
 10
-168.45
 20
65.7609
 11
-168.633
 21
65.8077
  0
LINE
  8
0
 10
-168.633
 20
65.8077
 11
-168.808
 21
65.877
  0
LINE
  8
0
 10
-168.808
 20
65.877
 11
-168.973
 21
65.9678
  0
LINE
  8
0
 10
-168.973
 20
65.9678
 11
-169.125
 21
66.0785
  0
LINE
  8
0
 10
-169.125
 20
66.0785
 11
-169.263
 21
66.2075
  0
LINE
  8
0
 10
-169.263
 20
66.2075
 11
-169.383
 21
66.3526
  0
LINE
  8
0
 10
-169.383
 20
66.3526
 11
-169.484
 21
66.5117
  0
LINE
  8
0
 10
-169.484
 20
66.5117
 11
-169.564
 21
66.6821
  0
LINE
  8
0
 10
-169.564
 20
66.6821
 11
-169.622
 21
66.8613
  0
LINE
  8
0
 10
-169.622
 20
66.8613
 11
-169.658
 21
67.0463
  0
LINE
  8
0
 10
-169.658
 20
67.0463
 11
-169.669
 21
67.2343
  0
LINE
  8
0
 10
-169.669
 20
67.2343
 11
-169.669
 21
84.3343
  0
LINE
  8
0
 10
-169.669
 20
84.3343
 11
-169.658
 21
84.5223
  0
LINE
  8
0
 10
-169.658
 20
84.5223
 11
-169.622
 21
84.7073
  0
LINE
  8
0
 10
-169.622
 20
84.7073
 11
-169.564
 21
84.8865
  0
LINE
  8
0
 10
-169.564
 20
84.8865
 11
-169.484
 21
85.0569
  0
LINE
  8
0
 10
-169.484
 20
85.0569
 11
-169.383
 21
85.216
  0
LINE
  8
0
 10
-169.383
 20
85.216
 11
-169.263
 21
85.3611
  0
LINE
  8
0
 10
-169.263
 20
85.3611
 11
-169.125
 21
85.4901
  0
LINE
  8
0
 10
-169.125
 20
85.4901
 11
-168.973
 21
85.6008
  0
LINE
  8
0
 10
-168.973
 20
85.6008
 11
-168.808
 21
85.6915
  0
LINE
  8
0
 10
-168.808
 20
85.6915
 11
-168.633
 21
85.7609
  0
LINE
  8
0
 10
-168.633
 20
85.7609
 11
-168.45
 21
85.8077
  0
LINE
  8
0
 10
-168.45
 20
85.8077
 11
-168.264
 21
85.8313
  0
LINE
  8
0
 10
-168.264
 20
85.8313
 11
-165.526
 21
85.8313
  0
LINE
  8
0
 10
-165.526
 20
85.8313
 11
-165.552
 21
85.9112
  0
LINE
  8
0
 10
-165.552
 20
85.9112
 11
-165.588
 21
86.0963
  0
LINE
  8
0
 10
-165.588
 20
86.0963
 11
-165.599
 21
86.2843
  0
LINE
  8
0
 10
-165.599
 20
86.2843
 11
-165.599
 21
103.384
  0
LINE
  8
0
 10
-165.599
 20
103.384
 11
-165.588
 21
103.572
  0
LINE
  8
0
 10
-165.588
 20
103.572
 11
-165.552
 21
103.757
  0
LINE
  8
0
 10
-165.552
 20
103.757
 11
-165.494
 21
103.936
  0
LINE
  8
0
 10
-165.494
 20
103.936
 11
-165.414
 21
104.107
  0
LINE
  8
0
 10
-165.414
 20
104.107
 11
-165.313
 21
104.266
  0
LINE
  8
0
 10
-165.313
 20
104.266
 11
-165.193
 21
104.411
  0
LINE
  8
0
 10
-165.193
 20
104.411
 11
-165.055
 21
104.54
  0
LINE
  8
0
 10
-165.055
 20
104.54
 11
-164.903
 21
104.651
  0
LINE
  8
0
 10
-164.903
 20
104.651
 11
-164.738
 21
104.742
  0
LINE
  8
0
 10
-164.738
 20
104.742
 11
-164.563
 21
104.811
  0
LINE
  8
0
 10
-164.563
 20
104.811
 11
-164.38
 21
104.858
  0
LINE
  8
0
 10
-164.38
 20
104.858
 11
-164.194
 21
104.881
  0
LINE
  8
0
 10
-164.194
 20
104.881
 11
-161.366
 21
104.881
  0
LINE
  8
0
 10
-161.366
 20
104.881
 11
-161.392
 21
104.961
  0
LINE
  8
0
 10
-161.392
 20
104.961
 11
-161.428
 21
105.146
  0
LINE
  8
0
 10
-161.428
 20
105.146
 11
-161.439
 21
105.334
  0
LINE
  8
0
 10
-161.439
 20
105.334
 11
-161.439
 21
122.434
  0
LINE
  8
0
 10
-161.439
 20
122.434
 11
-161.428
 21
122.622
  0
LINE
  8
0
 10
-161.428
 20
122.622
 11
-161.392
 21
122.807
  0
LINE
  8
0
 10
-161.392
 20
122.807
 11
-161.334
 21
122.986
  0
LINE
  8
0
 10
-161.334
 20
122.986
 11
-161.254
 21
123.157
  0
LINE
  8
0
 10
-161.254
 20
123.157
 11
-161.153
 21
123.316
  0
LINE
  8
0
 10
-161.153
 20
123.316
 11
-161.033
 21
123.461
  0
LINE
  8
0
 10
-161.033
 20
123.461
 11
-160.895
 21
123.59
  0
LINE
  8
0
 10
-160.895
 20
123.59
 11
-160.743
 21
123.701
  0
LINE
  8
0
 10
-160.743
 20
123.701
 11
-160.578
 21
123.792
  0
LINE
  8
0
 10
-160.578
 20
123.792
 11
-160.403
 21
123.861
  0
LINE
  8
0
 10
-160.403
 20
123.861
 11
-160.22
 21
123.908
  0
LINE
  8
0
 10
-160.22
 20
123.908
 11
-160.034
 21
123.931
  0
LINE
  8
0
 10
-160.034
 20
123.931
 11
-142.745
 21
123.931
  0
LINE
  8
0
 10
-142.745
 20
123.931
 11
-142.558
 21
123.908
  0
LINE
  8
0
 10
-142.558
 20
123.908
 11
-142.376
 21
123.861
  0
LINE
  8
0
 10
-142.376
 20
123.861
 11
-142.201
 21
123.792
  0
LINE
  8
0
 10
-142.201
 20
123.792
 11
-142.036
 21
123.701
  0
LINE
  8
0
 10
-142.036
 20
123.701
 11
-141.883
 21
123.59
  0
LINE
  8
0
 10
-141.883
 20
123.59
 11
-141.746
 21
123.461
  0
LINE
  8
0
 10
-141.746
 20
123.461
 11
-141.626
 21
123.316
  0
LINE
  8
0
 10
-141.626
 20
123.316
 11
-141.525
 21
123.157
  0
LINE
  8
0
 10
-141.525
 20
123.157
 11
-141.445
 21
122.986
  0
LINE
  8
0
 10
-141.445
 20
122.986
 11
-141.386
 21
122.807
  0
LINE
  8
0
 10
-141.386
 20
122.807
 11
-141.351
 21
122.622
  0
LINE
  8
0
 10
-141.351
 20
122.622
 11
-141.339
 21
122.434
  0
LINE
  8
0
 10
-141.339
 20
122.434
 11
-141.339
 21
105.334
  0
LINE
  8
0
 10
-141.339
 20
105.334
 11
-141.351
 21
105.146
  0
LINE
  8
0
 10
-141.351
 20
105.146
 11
-141.386
 21
104.961
  0
LINE
  8
0
 10
-141.386
 20
104.961
 11
-141.445
 21
104.782
  0
LINE
  8
0
 10
-141.445
 20
104.782
 11
-141.525
 21
104.612
  0
LINE
  8
0
 10
-141.525
 20
104.612
 11
-141.626
 21
104.453
  0
LINE
  8
0
 10
-141.626
 20
104.453
 11
-141.746
 21
104.307
  0
LINE
  8
0
 10
-141.746
 20
104.307
 11
-141.883
 21
104.179
  0
LINE
  8
0
 10
-141.883
 20
104.179
 11
-142.036
 21
104.068
  0
LINE
  8
0
 10
-142.036
 20
104.068
 11
-142.201
 21
103.977
  0
LINE
  8
0
 10
-142.201
 20
103.977
 11
-142.376
 21
103.908
  0
LINE
  8
0
 10
-142.376
 20
103.908
 11
-142.558
 21
103.861
  0
LINE
  8
0
 10
-142.558
 20
103.861
 11
-142.745
 21
103.837
  0
LINE
  8
0
 10
-142.745
 20
103.837
 11
-145.572
 21
103.837
  0
LINE
  8
0
 10
-145.572
 20
103.837
 11
-145.546
 21
103.757
  0
LINE
  8
0
 10
-145.546
 20
103.757
 11
-145.511
 21
103.572
  0
LINE
  8
0
 10
-145.511
 20
103.572
 11
-145.499
 21
103.384
  0
LINE
  8
0
 10
-145.499
 20
103.384
 11
-145.499
 21
86.2843
  0
LINE
  8
0
 10
-145.499
 20
86.2843
 11
-145.511
 21
86.0963
  0
LINE
  8
0
 10
-145.511
 20
86.0963
 11
-145.546
 21
85.9112
  0
LINE
  8
0
 10
-145.546
 20
85.9112
 11
-145.605
 21
85.7321
  0
LINE
  8
0
 10
-145.605
 20
85.7321
 11
-145.685
 21
85.5616
  0
LINE
  8
0
 10
-145.685
 20
85.5616
 11
-145.786
 21
85.4026
  0
LINE
  8
0
 10
-145.786
 20
85.4026
 11
-145.906
 21
85.2575
  0
LINE
  8
0
 10
-145.906
 20
85.2575
 11
-146.043
 21
85.1285
  0
LINE
  8
0
 10
-146.043
 20
85.1285
 11
-146.196
 21
85.0178
  0
LINE
  8
0
 10
-146.196
 20
85.0178
 11
-146.361
 21
84.927
  0
LINE
  8
0
 10
-146.361
 20
84.927
 11
-146.536
 21
84.8577
  0
LINE
  8
0
 10
-146.536
 20
84.8577
 11
-146.718
 21
84.8109
  0
LINE
  8
0
 10
-146.718
 20
84.8109
 11
-146.905
 21
84.7872
  0
LINE
  8
0
 10
-146.905
 20
84.7872
 11
-149.642
 21
84.7872
  0
LINE
  8
0
 10
-149.642
 20
84.7872
 11
-149.616
 21
84.7073
  0
LINE
  8
0
 10
-149.616
 20
84.7073
 11
-149.581
 21
84.5223
  0
LINE
  8
0
 10
-149.581
 20
84.5223
 11
-149.569
 21
84.3343
  0
LINE
  8
0
 10
-149.569
 20
84.3343
 11
-149.569
 21
67.2343
  0
LINE
  8
0
 10
-149.569
 20
67.2343
 11
-149.581
 21
67.0463
  0
LINE
  8
0
 10
-149.581
 20
67.0463
 11
-149.616
 21
66.8613
  0
LINE
  8
0
 10
-149.616
 20
66.8613
 11
-149.675
 21
66.6821
  0
LINE
  8
0
 10
-149.675
 20
66.6821
 11
-149.755
 21
66.5117
  0
LINE
  8
0
 10
-149.755
 20
66.5117
 11
-149.856
 21
66.3526
  0
LINE
  8
0
 10
-149.856
 20
66.3526
 11
-149.976
 21
66.2075
  0
LINE
  8
0
 10
-149.976
 20
66.2075
 11
-150.113
 21
66.0785
  0
LINE
  8
0
 10
-150.113
 20
66.0785
 11
-150.266
 21
65.9678
  0
LINE
  8
0
 10
-150.266
 20
65.9678
 11
-150.431
 21
65.877
  0
LINE
  8
0
 10
-150.431
 20
65.877
 11
-150.606
 21
65.8077
  0
LINE
  8
0
 10
-150.606
 20
65.8077
 11
-150.788
 21
65.7609
  0
LINE
  8
0
 10
-150.788
 20
65.7609
 11
-150.975
 21
65.7372
  0
LINE
  8
0
 10
-150.975
 20
65.7372
 11
-168.264
 21
65.7372
  0
LINE
  8
0
 10
-9.7794
 20
8.91202
 11
-69.4297
 21
21.5911
  0
LINE
  8
0
 10
-69.4297
 20
21.5911
 11
-69.4325
 21
21.5779
  0
LINE
  8
0
 10
-69.4325
 20
21.5779
 11
-69.4832
 21
21.3965
  0
LINE
  8
0
 10
-69.4832
 20
21.3965
 11
-69.5562
 21
21.2228
  0
LINE
  8
0
 10
-69.5562
 20
21.2228
 11
-69.6504
 21
21.0597
  0
LINE
  8
0
 10
-69.6504
 20
21.0597
 11
-69.7643
 21
20.9097
  0
LINE
  8
0
 10
-69.7643
 20
20.9097
 11
-69.896
 21
20.7751
  0
LINE
  8
0
 10
-69.896
 20
20.7751
 11
-70.0437
 21
20.6581
  0
LINE
  8
0
 10
-70.0437
 20
20.6581
 11
-70.2048
 21
20.5605
  0
LINE
  8
0
 10
-70.2048
 20
20.5605
 11
-70.3769
 21
20.4839
  0
LINE
  8
0
 10
-70.3769
 20
20.4839
 11
-70.5572
 21
20.4294
  0
LINE
  8
0
 10
-70.5572
 20
20.4294
 11
-70.743
 21
20.398
  0
LINE
  8
0
 10
-70.743
 20
20.398
 11
-70.9312
 21
20.3901
  0
LINE
  8
0
 10
-70.9312
 20
20.3901
 11
-71.1189
 21
20.4059
  0
LINE
  8
0
 10
-71.1189
 20
20.4059
 11
-97.3463
 21
25.9807
  0
LINE
  8
0
 10
-97.3463
 20
25.9807
 11
-97.5242
 21
26.0426
  0
LINE
  8
0
 10
-97.5242
 20
26.0426
 11
-97.6929
 21
26.1264
  0
LINE
  8
0
 10
-97.6929
 20
26.1264
 11
-97.8498
 21
26.2306
  0
LINE
  8
0
 10
-97.8498
 20
26.2306
 11
-97.9924
 21
26.3537
  0
LINE
  8
0
 10
-97.9924
 20
26.3537
 11
-98.1185
 21
26.4937
  0
LINE
  8
0
 10
-98.1185
 20
26.4937
 11
-98.226
 21
26.6484
  0
LINE
  8
0
 10
-98.226
 20
26.6484
 11
-98.3132
 21
26.8153
  0
LINE
  8
0
 10
-98.3132
 20
26.8153
 11
-98.3789
 21
26.9919
  0
LINE
  8
0
 10
-98.3789
 20
26.9919
 11
-98.4219
 21
27.1753
  0
LINE
  8
0
 10
-98.4219
 20
27.1753
 11
-98.4416
 21
27.3626
  0
LINE
  8
0
 10
-98.4416
 20
27.3626
 11
-98.4376
 21
27.551
  0
LINE
  8
0
 10
-98.4376
 20
27.551
 11
-98.4101
 21
27.7373
  0
LINE
  8
0
 10
-98.4101
 20
27.7373
 11
-94.8548
 21
44.4636
  0
LINE
  8
0
 10
-94.8548
 20
44.4636
 11
-94.8315
 21
44.5472
  0
LINE
  8
0
 10
-94.8315
 20
44.5472
 11
-121.187
 21
44.5472
  0
LINE
  8
0
 10
-121.187
 20
44.5472
 11
-121.187
 21
26.9943
  0
LINE
  8
0
 10
-121.187
 20
26.9943
 11
-121.199
 21
26.8063
  0
LINE
  8
0
 10
-121.199
 20
26.8063
 11
-121.234
 21
26.6212
  0
LINE
  8
0
 10
-121.234
 20
26.6212
 11
-121.292
 21
26.4421
  0
LINE
  8
0
 10
-121.292
 20
26.4421
 11
-121.372
 21
26.2717
  0
LINE
  8
0
 10
-121.372
 20
26.2717
 11
-121.473
 21
26.1126
  0
LINE
  8
0
 10
-121.473
 20
26.1126
 11
-121.593
 21
25.9675
  0
LINE
  8
0
 10
-121.593
 20
25.9675
 11
-121.731
 21
25.8385
  0
LINE
  8
0
 10
-121.731
 20
25.8385
 11
-121.883
 21
25.7278
  0
LINE
  8
0
 10
-121.883
 20
25.7278
 11
-122.048
 21
25.637
  0
LINE
  8
0
 10
-122.048
 20
25.637
 11
-122.223
 21
25.5677
  0
LINE
  8
0
 10
-122.223
 20
25.5677
 11
-122.406
 21
25.5209
  0
LINE
  8
0
 10
-122.406
 20
25.5209
 11
-122.593
 21
25.4972
  0
LINE
  8
0
 10
-122.593
 20
25.4972
 11
-149.406
 21
25.4972
  0
LINE
  8
0
 10
-149.406
 20
25.4972
 11
-149.593
 21
25.5209
  0
LINE
  8
0
 10
-149.593
 20
25.5209
 11
-149.775
 21
25.5677
  0
LINE
  8
0
 10
-149.775
 20
25.5677
 11
-149.951
 21
25.637
  0
LINE
  8
0
 10
-149.951
 20
25.637
 11
-150.116
 21
25.7278
  0
LINE
  8
0
 10
-150.116
 20
25.7278
 11
-150.268
 21
25.8385
  0
LINE
  8
0
 10
-150.268
 20
25.8385
 11
-150.405
 21
25.9675
  0
LINE
  8
0
 10
-150.405
 20
25.9675
 11
-150.525
 21
26.1126
  0
LINE
  8
0
 10
-150.525
 20
26.1126
 11
-150.626
 21
26.2717
  0
LINE
  8
0
 10
-150.626
 20
26.2717
 11
-150.706
 21
26.4421
  0
LINE
  8
0
 10
-150.706
 20
26.4421
 11
-150.765
 21
26.6212
  0
LINE
  8
0
 10
-150.765
 20
26.6212
 11
-150.8
 21
26.8063
  0
LINE
  8
0
 10
-150.8
 20
26.8063
 11
-150.812
 21
26.9943
  0
LINE
  8
0
 10
-150.812
 20
26.9943
 11
-150.812
 21
45.9849
  0
LINE
  8
0
 10
-150.812
 20
45.9849
 11
-150.816
 21
46.0443
  0
LINE
  8
0
 10
-150.816
 20
46.0443
 11
-150.816
 21
63.1443
  0
LINE
  8
0
 10
-150.816
 20
63.1443
 11
-150.804
 21
63.3323
  0
LINE
  8
0
 10
-150.804
 20
63.3323
 11
-150.768
 21
63.5173
  0
LINE
  8
0
 10
-150.768
 20
63.5173
 11
-150.71
 21
63.6965
  0
LINE
  8
0
 10
-150.71
 20
63.6965
 11
-150.63
 21
63.8669
  0
LINE
  8
0
 10
-150.63
 20
63.8669
 11
-150.529
 21
64.026
  0
LINE
  8
0
 10
-150.529
 20
64.026
 11
-150.409
 21
64.1711
  0
LINE
  8
0
 10
-150.409
 20
64.1711
 11
-150.272
 21
64.3001
  0
LINE
  8
0
 10
-150.272
 20
64.3001
 11
-150.119
 21
64.4108
  0
LINE
  8
0
 10
-150.119
 20
64.4108
 11
-149.954
 21
64.5015
  0
LINE
  8
0
 10
-149.954
 20
64.5015
 11
-149.779
 21
64.5709
  0
LINE
  8
0
 10
-149.779
 20
64.5709
 11
-149.597
 21
64.6177
  0
LINE
  8
0
 10
-149.597
 20
64.6177
 11
-149.41
 21
64.6413
  0
LINE
  8
0
 10
-149.41
 20
64.6413
 11
-146.578
 21
64.6413
  0
LINE
  8
0
 10
-146.578
 20
64.6413
 11
-146.604
 21
64.7213
  0
LINE
  8
0
 10
-146.604
 20
64.7213
 11
-146.639
 21
64.9063
  0
LINE
  8
0
 10
-146.639
 20
64.9063
 11
-146.651
 21
65.0943
  0
LINE
  8
0
 10
-146.651
 20
65.0943
 11
-146.651
 21
82.1943
  0
LINE
  8
0
 10
-146.651
 20
82.1943
 11
-146.639
 21
82.3823
  0
LINE
  8
0
 10
-146.639
 20
82.3823
 11
-146.604
 21
82.5673
  0
LINE
  8
0
 10
-146.604
 20
82.5673
 11
-146.545
 21
82.7465
  0
LINE
  8
0
 10
-146.545
 20
82.7465
 11
-146.465
 21
82.9169
  0
LINE
  8
0
 10
-146.465
 20
82.9169
 11
-146.364
 21
83.076
  0
LINE
  8
0
 10
-146.364
 20
83.076
 11
-146.244
 21
83.2211
  0
LINE
  8
0
 10
-146.244
 20
83.2211
 11
-146.107
 21
83.3501
  0
LINE
  8
0
 10
-146.107
 20
83.3501
 11
-145.955
 21
83.4608
  0
LINE
  8
0
 10
-145.955
 20
83.4608
 11
-145.789
 21
83.5515
  0
LINE
  8
0
 10
-145.789
 20
83.5515
 11
-145.614
 21
83.6209
  0
LINE
  8
0
 10
-145.614
 20
83.6209
 11
-145.432
 21
83.6677
  0
LINE
  8
0
 10
-145.432
 20
83.6677
 11
-145.245
 21
83.6913
  0
LINE
  8
0
 10
-145.245
 20
83.6913
 11
-142.509
 21
83.6913
  0
LINE
  8
0
 10
-142.509
 20
83.6913
 11
-142.535
 21
83.7712
  0
LINE
  8
0
 10
-142.535
 20
83.7712
 11
-142.57
 21
83.9563
  0
LINE
  8
0
 10
-142.57
 20
83.9563
 11
-142.582
 21
84.1443
  0
LINE
  8
0
 10
-142.582
 20
84.1443
 11
-142.582
 21
101.244
  0
LINE
  8
0
 10
-142.582
 20
101.244
 11
-142.57
 21
101.432
  0
LINE
  8
0
 10
-142.57
 20
101.432
 11
-142.535
 21
101.617
  0
LINE
  8
0
 10
-142.535
 20
101.617
 11
-142.477
 21
101.796
  0
LINE
  8
0
 10
-142.477
 20
101.796
 11
-142.396
 21
101.967
  0
LINE
  8
0
 10
-142.396
 20
101.967
 11
-142.295
 21
102.126
  0
LINE
  8
0
 10
-142.295
 20
102.126
 11
-142.175
 21
102.271
  0
LINE
  8
0
 10
-142.175
 20
102.271
 11
-142.038
 21
102.4
  0
LINE
  8
0
 10
-142.038
 20
102.4
 11
-141.886
 21
102.511
  0
LINE
  8
0
 10
-141.886
 20
102.511
 11
-141.721
 21
102.602
  0
LINE
  8
0
 10
-141.721
 20
102.602
 11
-141.545
 21
102.671
  0
LINE
  8
0
 10
-141.545
 20
102.671
 11
-141.363
 21
102.718
  0
LINE
  8
0
 10
-141.363
 20
102.718
 11
-141.176
 21
102.741
  0
LINE
  8
0
 10
-141.176
 20
102.741
 11
-138.346
 21
102.741
  0
LINE
  8
0
 10
-138.346
 20
102.741
 11
-138.372
 21
102.821
  0
LINE
  8
0
 10
-138.372
 20
102.821
 11
-138.408
 21
103.006
  0
LINE
  8
0
 10
-138.408
 20
103.006
 11
-138.419
 21
103.194
  0
LINE
  8
0
 10
-138.419
 20
103.194
 11
-138.419
 21
120.294
  0
LINE
  8
0
 10
-138.419
 20
120.294
 11
-138.408
 21
120.482
  0
LINE
  8
0
 10
-138.408
 20
120.482
 11
-138.372
 21
120.667
  0
LINE
  8
0
 10
-138.372
 20
120.667
 11
-138.314
 21
120.846
  0
LINE
  8
0
 10
-138.314
 20
120.846
 11
-138.234
 21
121.017
  0
LINE
  8
0
 10
-138.234
 20
121.017
 11
-138.133
 21
121.176
  0
LINE
  8
0
 10
-138.133
 20
121.176
 11
-138.013
 21
121.321
  0
LINE
  8
0
 10
-138.013
 20
121.321
 11
-137.875
 21
121.45
  0
LINE
  8
0
 10
-137.875
 20
121.45
 11
-137.723
 21
121.561
  0
LINE
  8
0
 10
-137.723
 20
121.561
 11
-137.558
 21
121.652
  0
LINE
  8
0
 10
-137.558
 20
121.652
 11
-137.383
 21
121.721
  0
LINE
  8
0
 10
-137.383
 20
121.721
 11
-137.2
 21
121.768
  0
LINE
  8
0
 10
-137.2
 20
121.768
 11
-137.014
 21
121.791
  0
LINE
  8
0
 10
-137.014
 20
121.791
 11
-100.729
 21
121.791
  0
LINE
  8
0
 10
-100.729
 20
121.791
 11
-100.729
 21
122.434
  0
LINE
  8
0
 10
-100.729
 20
122.434
 11
-100.717
 21
122.622
  0
LINE
  8
0
 10
-100.717
 20
122.622
 11
-100.682
 21
122.807
  0
LINE
  8
0
 10
-100.682
 20
122.807
 11
-100.624
 21
122.986
  0
LINE
  8
0
 10
-100.624
 20
122.986
 11
-100.544
 21
123.157
  0
LINE
  8
0
 10
-100.544
 20
123.157
 11
-100.443
 21
123.316
  0
LINE
  8
0
 10
-100.443
 20
123.316
 11
-100.323
 21
123.461
  0
LINE
  8
0
 10
-100.323
 20
123.461
 11
-100.185
 21
123.59
  0
LINE
  8
0
 10
-100.185
 20
123.59
 11
-100.033
 21
123.701
  0
LINE
  8
0
 10
-100.033
 20
123.701
 11
-99.868
 21
123.792
  0
LINE
  8
0
 10
-99.868
 20
123.792
 11
-99.6929
 21
123.861
  0
LINE
  8
0
 10
-99.6929
 20
123.861
 11
-99.5104
 21
123.908
  0
LINE
  8
0
 10
-99.5104
 20
123.908
 11
-99.3235
 21
123.931
  0
LINE
  8
0
 10
-99.3235
 20
123.931
 11
-82.0352
 21
123.931
  0
LINE
  8
0
 10
-82.0352
 20
123.931
 11
-81.8483
 21
123.908
  0
LINE
  8
0
 10
-81.8483
 20
123.908
 11
-81.6658
 21
123.861
  0
LINE
  8
0
 10
-81.6658
 20
123.861
 11
-81.4907
 21
123.792
  0
LINE
  8
0
 10
-81.4907
 20
123.792
 11
-81.3256
 21
123.701
  0
LINE
  8
0
 10
-81.3256
 20
123.701
 11
-81.1732
 21
123.59
  0
LINE
  8
0
 10
-81.1732
 20
123.59
 11
-81.0359
 21
123.461
  0
LINE
  8
0
 10
-81.0359
 20
123.461
 11
-80.9158
 21
123.316
  0
LINE
  8
0
 10
-80.9158
 20
123.316
 11
-80.8149
 21
123.157
  0
LINE
  8
0
 10
-80.8149
 20
123.157
 11
-80.7347
 21
122.986
  0
LINE
  8
0
 10
-80.7347
 20
122.986
 11
-80.6765
 21
122.807
  0
LINE
  8
0
 10
-80.6765
 20
122.807
 11
-80.6412
 21
122.622
  0
LINE
  8
0
 10
-80.6412
 20
122.622
 11
-80.6293
 21
122.434
  0
LINE
  8
0
 10
-80.6293
 20
122.434
 11
-80.6293
 21
122.417
  0
LINE
  8
0
 10
-80.6293
 20
122.417
 11
-3.73402
 21
106.072
  0
LINE
  8
0
 10
-3.73402
 20
106.072
 11
-3.55614
 21
106.01
  0
LINE
  8
0
 10
-3.55614
 20
106.01
 11
-3.38741
 21
105.927
  0
LINE
  8
0
 10
-3.38741
 20
105.927
 11
-3.23051
 21
105.822
  0
LINE
  8
0
 10
-3.23051
 20
105.822
 11
-3.08792
 21
105.699
  0
LINE
  8
0
 10
-3.08792
 20
105.699
 11
-2.96187
 21
105.559
  0
LINE
  8
0
 10
-2.96187
 20
105.559
 11
-2.85435
 21
105.405
  0
LINE
  8
0
 10
-2.85435
 20
105.405
 11
-2.76709
 21
105.238
  0
LINE
  8
0
 10
-2.76709
 20
105.238
 11
-2.70143
 21
105.061
  0
LINE
  8
0
 10
-2.70143
 20
105.061
 11
-2.65842
 21
104.878
  0
LINE
  8
0
 10
-2.65842
 20
104.878
 11
-2.63872
 21
104.69
  0
LINE
  8
0
 10
-2.63872
 20
104.69
 11
-2.64267
 21
104.502
  0
LINE
  8
0
 10
-2.64267
 20
104.502
 11
-2.6702
 21
104.316
  0
LINE
  8
0
 10
-2.6702
 20
104.316
 11
-6.22548
 21
87.5895
  0
LINE
  8
0
 10
-6.22548
 20
87.5895
 11
-6.27614
 21
87.408
  0
LINE
  8
0
 10
-6.27614
 20
87.408
 11
-6.34914
 21
87.2344
  0
LINE
  8
0
 10
-6.34914
 20
87.2344
 11
-6.44331
 21
87.0712
  0
LINE
  8
0
 10
-6.44331
 20
87.0712
 11
-6.55721
 21
86.9212
  0
LINE
  8
0
 10
-6.55721
 20
86.9212
 11
-6.689
 21
86.7866
  0
LINE
  8
0
 10
-6.689
 20
86.7866
 11
-6.83662
 21
86.6696
  0
LINE
  8
0
 10
-6.83662
 20
86.6696
 11
-6.99774
 21
86.572
  0
LINE
  8
0
 10
-6.99774
 20
86.572
 11
-7.16985
 21
86.4954
  0
LINE
  8
0
 10
-7.16985
 20
86.4954
 11
-7.35017
 21
86.4409
  0
LINE
  8
0
 10
-7.35017
 20
86.4409
 11
-7.5359
 21
86.4095
  0
LINE
  8
0
 10
-7.5359
 20
86.4095
 11
-7.72411
 21
86.4017
  0
LINE
  8
0
 10
-7.72411
 20
86.4017
 11
-7.91182
 21
86.4174
  0
LINE
  8
0
 10
-7.91182
 20
86.4174
 11
-15.9251
 21
88.1207
  0
LINE
  8
0
 10
-15.9251
 20
88.1207
 11
-15.9163
 21
88.0371
  0
LINE
  8
0
 10
-15.9163
 20
88.0371
 11
-15.9202
 21
87.8488
  0
LINE
  8
0
 10
-15.9202
 20
87.8488
 11
-15.9478
 21
87.6624
  0
LINE
  8
0
 10
-15.9478
 20
87.6624
 11
-19.5031
 21
70.9361
  0
LINE
  8
0
 10
-19.5031
 20
70.9361
 11
-19.5537
 21
70.7547
  0
LINE
  8
0
 10
-19.5537
 20
70.7547
 11
-19.6267
 21
70.581
  0
LINE
  8
0
 10
-19.6267
 20
70.581
 11
-19.6687
 21
70.5082
  0
LINE
  8
0
 10
-19.6687
 20
70.5082
 11
-16.3139
 21
69.7952
  0
LINE
  8
0
 10
-16.3139
 20
69.7952
 11
-16.136
 21
69.7332
  0
LINE
  8
0
 10
-16.136
 20
69.7332
 11
-15.9673
 21
69.6494
  0
LINE
  8
0
 10
-15.9673
 20
69.6494
 11
-15.8104
 21
69.5452
  0
LINE
  8
0
 10
-15.8104
 20
69.5452
 11
-15.6678
 21
69.4221
  0
LINE
  8
0
 10
-15.6678
 20
69.4221
 11
-15.5417
 21
69.2821
  0
LINE
  8
0
 10
-15.5417
 20
69.2821
 11
-15.4342
 21
69.1274
  0
LINE
  8
0
 10
-15.4342
 20
69.1274
 11
-15.347
 21
68.9605
  0
LINE
  8
0
 10
-15.347
 20
68.9605
 11
-15.2813
 21
68.784
  0
LINE
  8
0
 10
-15.2813
 20
68.784
 11
-15.2383
 21
68.6006
  0
LINE
  8
0
 10
-15.2383
 20
68.6006
 11
-15.2186
 21
68.4132
  0
LINE
  8
0
 10
-15.2186
 20
68.4132
 11
-15.2225
 21
68.2249
  0
LINE
  8
0
 10
-15.2225
 20
68.2249
 11
-15.2501
 21
68.0385
  0
LINE
  8
0
 10
-15.2501
 20
68.0385
 11
-18.8053
 21
51.3122
  0
LINE
  8
0
 10
-18.8053
 20
51.3122
 11
-18.856
 21
51.1308
  0
LINE
  8
0
 10
-18.856
 20
51.1308
 11
-18.929
 21
50.9571
  0
LINE
  8
0
 10
-18.929
 20
50.9571
 11
-18.971
 21
50.8844
  0
LINE
  8
0
 10
-18.971
 20
50.8844
 11
-10.9577
 21
49.1811
  0
LINE
  8
0
 10
-10.9577
 20
49.1811
 11
-10.7799
 21
49.1191
  0
LINE
  8
0
 10
-10.7799
 20
49.1191
 11
-10.6111
 21
49.0354
  0
LINE
  8
0
 10
-10.6111
 20
49.0354
 11
-10.4542
 21
48.9311
  0
LINE
  8
0
 10
-10.4542
 20
48.9311
 11
-10.3116
 21
48.808
  0
LINE
  8
0
 10
-10.3116
 20
48.808
 11
-10.1856
 21
48.6681
  0
LINE
  8
0
 10
-10.1856
 20
48.6681
 11
-10.0781
 21
48.5134
  0
LINE
  8
0
 10
-10.0781
 20
48.5134
 11
-9.99081
 21
48.3465
  0
LINE
  8
0
 10
-9.99081
 20
48.3465
 11
-9.92516
 21
48.1699
  0
LINE
  8
0
 10
-9.92516
 20
48.1699
 11
-9.88214
 21
47.9865
  0
LINE
  8
0
 10
-9.88214
 20
47.9865
 11
-9.86244
 21
47.7991
  0
LINE
  8
0
 10
-9.86244
 20
47.7991
 11
-9.86639
 21
47.6108
  0
LINE
  8
0
 10
-9.86639
 20
47.6108
 11
-9.89392
 21
47.4245
  0
LINE
  8
0
 10
-9.89392
 20
47.4245
 11
-13.4492
 21
30.6982
  0
LINE
  8
0
 10
-13.4492
 20
30.6982
 11
-13.4999
 21
30.5167
  0
LINE
  8
0
 10
-13.4999
 20
30.5167
 11
-13.5729
 21
30.343
  0
LINE
  8
0
 10
-13.5729
 20
30.343
 11
-13.6149
 21
30.2703
  0
LINE
  8
0
 10
-13.6149
 20
30.2703
 11
-5.60161
 21
28.567
  0
LINE
  8
0
 10
-5.60161
 20
28.567
 11
-5.42372
 21
28.5051
  0
LINE
  8
0
 10
-5.42372
 20
28.5051
 11
-5.25499
 21
28.4213
  0
LINE
  8
0
 10
-5.25499
 20
28.4213
 11
-5.0981
 21
28.3171
  0
LINE
  8
0
 10
-5.0981
 20
28.3171
 11
-4.95551
 21
28.194
  0
LINE
  8
0
 10
-4.95551
 20
28.194
 11
-4.82945
 21
28.054
  0
LINE
  8
0
 10
-4.82945
 20
28.054
 11
-4.72194
 21
27.8993
  0
LINE
  8
0
 10
-4.72194
 20
27.8993
 11
-4.63467
 21
27.7324
  0
LINE
  8
0
 10
-4.63467
 20
27.7324
 11
-4.56902
 21
27.5558
  0
LINE
  8
0
 10
-4.56902
 20
27.5558
 11
-4.526
 21
27.3724
  0
LINE
  8
0
 10
-4.526
 20
27.3724
 11
-4.50632
 21
27.1851
  0
LINE
  8
0
 10
-4.50632
 20
27.1851
 11
-4.51025
 21
26.9967
  0
LINE
  8
0
 10
-4.51025
 20
26.9967
 11
-4.53778
 21
26.8104
  0
LINE
  8
0
 10
-4.53778
 20
26.8104
 11
-8.09306
 21
10.0841
  0
LINE
  8
0
 10
-8.09306
 20
10.0841
 11
-8.14372
 21
9.90265
  0
LINE
  8
0
 10
-8.14372
 20
9.90265
 11
-8.21672
 21
9.72899
  0
LINE
  8
0
 10
-8.21672
 20
9.72899
 11
-8.3109
 21
9.56584
  0
LINE
  8
0
 10
-8.3109
 20
9.56584
 11
-8.42479
 21
9.4158
  0
LINE
  8
0
 10
-8.42479
 20
9.4158
 11
-8.55658
 21
9.28122
  0
LINE
  8
0
 10
-8.55658
 20
9.28122
 11
-8.70421
 21
9.16422
  0
LINE
  8
0
 10
-8.70421
 20
9.16422
 11
-8.86534
 21
9.06664
  0
LINE
  8
0
 10
-8.86534
 20
9.06664
 11
-9.03743
 21
8.99002
  0
LINE
  8
0
 10
-9.03743
 20
8.99002
 11
-9.21776
 21
8.93556
  0
LINE
  8
0
 10
-9.21776
 20
8.93556
 11
-9.40349
 21
8.90416
  0
LINE
  8
0
 10
-9.40349
 20
8.90416
 11
-9.59169
 21
8.89627
  0
LINE
  8
0
 10
-9.59169
 20
8.89627
 11
-9.7794
 21
8.91202
  0
LINE
  8
0
 10
9.00484
 20
10.883
 11
8.81911
 21
10.9144
  0
LINE
  8
0
 10
8.81911
 20
10.9144
 11
8.63876
 21
10.9689
  0
LINE
  8
0
 10
8.63876
 20
10.9689
 11
8.46667
 21
11.0455
  0
LINE
  8
0
 10
8.46667
 20
11.0455
 11
8.30556
 21
11.1431
  0
LINE
  8
0
 10
8.30556
 20
11.1431
 11
8.15793
 21
11.2601
  0
LINE
  8
0
 10
8.15793
 20
11.2601
 11
8.02612
 21
11.3947
  0
LINE
  8
0
 10
8.02612
 20
11.3947
 11
7.91225
 21
11.5447
  0
LINE
  8
0
 10
7.91225
 20
11.5447
 11
7.81805
 21
11.7078
  0
LINE
  8
0
 10
7.81805
 20
11.7078
 11
7.74506
 21
11.8815
  0
LINE
  8
0
 10
7.74506
 20
11.8815
 11
7.6944
 21
12.0629
  0
LINE
  8
0
 10
7.6944
 20
12.0629
 11
0.178391
 21
47.423
  0
LINE
  8
0
 10
0.178391
 20
47.423
 11
0.150879
 21
47.6093
  0
LINE
  8
0
 10
0.150879
 20
47.6093
 11
0.146927
 21
47.7976
  0
LINE
  8
0
 10
0.146927
 20
47.7976
 11
0.166626
 21
47.985
  0
LINE
  8
0
 10
0.166626
 20
47.985
 11
0.209625
 21
48.1684
  0
LINE
  8
0
 10
0.209625
 20
48.1684
 11
0.275299
 21
48.3449
  0
LINE
  8
0
 10
0.275299
 20
48.3449
 11
0.362564
 21
48.5119
  0
LINE
  8
0
 10
0.362564
 20
48.5119
 11
0.470062
 21
48.6665
  0
LINE
  8
0
 10
0.470062
 20
48.6665
 11
0.596115
 21
48.8065
  0
LINE
  8
0
 10
0.596115
 20
48.8065
 11
0.738724
 21
48.9296
  0
LINE
  8
0
 10
0.738724
 20
48.9296
 11
0.895615
 21
49.0339
  0
LINE
  8
0
 10
0.895615
 20
49.0339
 11
1.06433
 21
49.1176
  0
LINE
  8
0
 10
1.06433
 20
49.1176
 11
1.24223
 21
49.1796
  0
LINE
  8
0
 10
1.24223
 20
49.1796
 11
9.25549
 21
50.8828
  0
LINE
  8
0
 10
9.25549
 20
50.8828
 11
9.21347
 21
50.9556
  0
LINE
  8
0
 10
9.21347
 20
50.9556
 11
9.14047
 21
51.1293
  0
LINE
  8
0
 10
9.14047
 20
51.1293
 11
9.08983
 21
51.3107
  0
LINE
  8
0
 10
9.08983
 20
51.3107
 11
5.53453
 21
68.037
  0
LINE
  8
0
 10
5.53453
 20
68.037
 11
5.50702
 21
68.2234
  0
LINE
  8
0
 10
5.50702
 20
68.2234
 11
5.50307
 21
68.4117
  0
LINE
  8
0
 10
5.50307
 20
68.4117
 11
5.51186
 21
68.4953
  0
LINE
  8
0
 10
5.51186
 20
68.4953
 11
2.15701
 21
67.7822
  0
LINE
  8
0
 10
2.15701
 20
67.7822
 11
1.9693
 21
67.7664
  0
LINE
  8
0
 10
1.9693
 20
67.7664
 11
1.7811
 21
67.7743
  0
LINE
  8
0
 10
1.7811
 20
67.7743
 11
1.59537
 21
67.8057
  0
LINE
  8
0
 10
1.59537
 20
67.8057
 11
1.41504
 21
67.8602
  0
LINE
  8
0
 10
1.41504
 20
67.8602
 11
1.24295
 21
67.9368
  0
LINE
  8
0
 10
1.24295
 20
67.9368
 11
1.08182
 21
68.0344
  0
LINE
  8
0
 10
1.08182
 20
68.0344
 11
0.934204
 21
68.1514
  0
LINE
  8
0
 10
0.934204
 20
68.1514
 11
0.802399
 21
68.286
  0
LINE
  8
0
 10
0.802399
 20
68.286
 11
0.688522
 21
68.436
  0
LINE
  8
0
 10
0.688522
 20
68.436
 11
0.59433
 21
68.5992
  0
LINE
  8
0
 10
0.59433
 20
68.5992
 11
0.521332
 21
68.7728
  0
LINE
  8
0
 10
0.521332
 20
68.7728
 11
0.470673
 21
68.9543
  0
LINE
  8
0
 10
0.470673
 20
68.9543
 11
-3.08459
 21
85.6806
  0
LINE
  8
0
 10
-3.08459
 20
85.6806
 11
-3.11212
 21
85.8669
  0
LINE
  8
0
 10
-3.11212
 20
85.8669
 11
-3.11606
 21
86.0552
  0
LINE
  8
0
 10
-3.11606
 20
86.0552
 11
-3.09637
 21
86.2426
  0
LINE
  8
0
 10
-3.09637
 20
86.2426
 11
-3.05336
 21
86.426
  0
LINE
  8
0
 10
-3.05336
 20
86.426
 11
-2.9877
 21
86.6025
  0
LINE
  8
0
 10
-2.9877
 20
86.6025
 11
-2.90042
 21
86.7695
  0
LINE
  8
0
 10
-2.90042
 20
86.7695
 11
-2.79292
 21
86.9242
  0
LINE
  8
0
 10
-2.79292
 20
86.9242
 11
-2.66687
 21
87.0641
  0
LINE
  8
0
 10
-2.66687
 20
87.0641
 11
-2.52428
 21
87.1872
  0
LINE
  8
0
 10
-2.52428
 20
87.1872
 11
-2.36739
 21
87.2915
  0
LINE
  8
0
 10
-2.36739
 20
87.2915
 11
-2.19865
 21
87.3752
  0
LINE
  8
0
 10
-2.19865
 20
87.3752
 11
-2.02077
 21
87.4372
  0
LINE
  8
0
 10
-2.02077
 20
87.4372
 11
5.99248
 21
89.1404
  0
LINE
  8
0
 10
5.99248
 20
89.1404
 11
5.95047
 21
89.2132
  0
LINE
  8
0
 10
5.95047
 20
89.2132
 11
5.87747
 21
89.3869
  0
LINE
  8
0
 10
5.87747
 20
89.3869
 11
5.82681
 21
89.5683
  0
LINE
  8
0
 10
5.82681
 20
89.5683
 11
2.27153
 21
106.295
  0
LINE
  8
0
 10
2.27153
 20
106.295
 11
2.244
 21
106.481
  0
LINE
  8
0
 10
2.244
 20
106.481
 11
2.24007
 21
106.669
  0
LINE
  8
0
 10
2.24007
 20
106.669
 11
2.25975
 21
106.857
  0
LINE
  8
0
 10
2.25975
 20
106.857
 11
2.30276
 21
107.04
  0
LINE
  8
0
 10
2.30276
 20
107.04
 11
2.36842
 21
107.217
  0
LINE
  8
0
 10
2.36842
 20
107.217
 11
2.45569
 21
107.384
  0
LINE
  8
0
 10
2.45569
 20
107.384
 11
2.5632
 21
107.538
  0
LINE
  8
0
 10
2.5632
 20
107.538
 11
2.68925
 21
107.678
  0
LINE
  8
0
 10
2.68925
 20
107.678
 11
2.83185
 21
107.801
  0
LINE
  8
0
 10
2.83185
 20
107.801
 11
2.98874
 21
107.906
  0
LINE
  8
0
 10
2.98874
 20
107.906
 11
3.15747
 21
107.989
  0
LINE
  8
0
 10
3.15747
 20
107.989
 11
3.33536
 21
108.051
  0
LINE
  8
0
 10
3.33536
 20
108.051
 11
76.6129
 21
123.627
  0
LINE
  8
0
 10
76.6129
 20
123.627
 11
76.8006
 21
123.643
  0
LINE
  8
0
 10
76.8006
 20
123.643
 11
76.9888
 21
123.635
  0
LINE
  8
0
 10
76.9888
 20
123.635
 11
77.019
 21
123.63
  0
LINE
  8
0
 10
77.019
 20
123.63
 11
77.1169
 21
123.701
  0
LINE
  8
0
 10
77.1169
 20
123.701
 11
77.282
 21
123.792
  0
LINE
  8
0
 10
77.282
 20
123.792
 11
77.4571
 21
123.861
  0
LINE
  8
0
 10
77.4571
 20
123.861
 11
77.6396
 21
123.908
  0
LINE
  8
0
 10
77.6396
 20
123.908
 11
77.8265
 21
123.931
  0
LINE
  8
0
 10
77.8265
 20
123.931
 11
98.9248
 21
123.931
  0
LINE
  8
0
 10
98.9248
 20
123.931
 11
99.1117
 21
123.908
  0
LINE
  8
0
 10
99.1117
 20
123.908
 11
99.2942
 21
123.861
  0
LINE
  8
0
 10
99.2942
 20
123.861
 11
99.4693
 21
123.792
  0
LINE
  8
0
 10
99.4693
 20
123.792
 11
99.6344
 21
123.701
  0
LINE
  8
0
 10
99.6344
 20
123.701
 11
99.7868
 21
123.59
  0
LINE
  8
0
 10
99.7868
 20
123.59
 11
99.9241
 21
123.461
  0
LINE
  8
0
 10
99.9241
 20
123.461
 11
100.044
 21
123.316
  0
LINE
  8
0
 10
100.044
 20
123.316
 11
100.145
 21
123.157
  0
LINE
  8
0
 10
100.145
 20
123.157
 11
100.225
 21
122.986
  0
LINE
  8
0
 10
100.225
 20
122.986
 11
100.284
 21
122.807
  0
LINE
  8
0
 10
100.284
 20
122.807
 11
100.319
 21
122.622
  0
LINE
  8
0
 10
100.319
 20
122.622
 11
100.331
 21
122.434
  0
LINE
  8
0
 10
100.331
 20
122.434
 11
100.331
 21
121.791
  0
LINE
  8
0
 10
100.331
 20
121.791
 11
155.655
 21
121.791
  0
LINE
  8
0
 10
155.655
 20
121.791
 11
155.842
 21
121.768
  0
LINE
  8
0
 10
155.842
 20
121.768
 11
156.024
 21
121.721
  0
LINE
  8
0
 10
156.024
 20
121.721
 11
156.199
 21
121.652
  0
LINE
  8
0
 10
156.199
 20
121.652
 11
156.364
 21
121.561
  0
LINE
  8
0
 10
156.364
 20
121.561
 11
156.517
 21
121.45
  0
LINE
  8
0
 10
156.517
 20
121.45
 11
156.654
 21
121.321
  0
LINE
  8
0
 10
156.654
 20
121.321
 11
156.774
 21
121.176
  0
LINE
  8
0
 10
156.774
 20
121.176
 11
156.875
 21
121.017
  0
LINE
  8
0
 10
156.875
 20
121.017
 11
156.955
 21
120.846
  0
LINE
  8
0
 10
156.955
 20
120.846
 11
157.014
 21
120.667
  0
LINE
  8
0
 10
157.014
 20
120.667
 11
157.049
 21
120.482
  0
LINE
  8
0
 10
157.049
 20
120.482
 11
157.061
 21
120.294
  0
LINE
  8
0
 10
157.061
 20
120.294
 11
157.061
 21
103.194
  0
LINE
  8
0
 10
157.061
 20
103.194
 11
157.049
 21
103.006
  0
LINE
  8
0
 10
157.049
 20
103.006
 11
157.014
 21
102.821
  0
LINE
  8
0
 10
157.014
 20
102.821
 11
156.988
 21
102.741
  0
LINE
  8
0
 10
156.988
 20
102.741
 11
159.82
 21
102.741
  0
LINE
  8
0
 10
159.82
 20
102.741
 11
160.007
 21
102.718
  0
LINE
  8
0
 10
160.007
 20
102.718
 11
160.189
 21
102.671
  0
LINE
  8
0
 10
160.189
 20
102.671
 11
160.364
 21
102.602
  0
LINE
  8
0
 10
160.364
 20
102.602
 11
160.529
 21
102.511
  0
LINE
  8
0
 10
160.529
 20
102.511
 11
160.682
 21
102.4
  0
LINE
  8
0
 10
160.682
 20
102.4
 11
160.819
 21
102.271
  0
LINE
  8
0
 10
160.819
 20
102.271
 11
160.939
 21
102.126
  0
LINE
  8
0
 10
160.939
 20
102.126
 11
161.04
 21
101.967
  0
LINE
  8
0
 10
161.04
 20
101.967
 11
161.12
 21
101.796
  0
LINE
  8
0
 10
161.12
 20
101.796
 11
161.179
 21
101.617
  0
LINE
  8
0
 10
161.179
 20
101.617
 11
161.214
 21
101.432
  0
LINE
  8
0
 10
161.214
 20
101.432
 11
161.226
 21
101.244
  0
LINE
  8
0
 10
161.226
 20
101.244
 11
161.226
 21
84.1443
  0
LINE
  8
0
 10
161.226
 20
84.1443
 11
161.214
 21
83.9563
  0
LINE
  8
0
 10
161.214
 20
83.9563
 11
161.179
 21
83.7712
  0
LINE
  8
0
 10
161.179
 20
83.7712
 11
161.153
 21
83.6913
  0
LINE
  8
0
 10
161.153
 20
83.6913
 11
164.091
 21
83.6913
  0
LINE
  8
0
 10
164.091
 20
83.6913
 11
164.278
 21
83.6677
  0
LINE
  8
0
 10
164.278
 20
83.6677
 11
164.46
 21
83.6209
  0
LINE
  8
0
 10
164.46
 20
83.6209
 11
164.636
 21
83.5515
  0
LINE
  8
0
 10
164.636
 20
83.5515
 11
164.801
 21
83.4608
  0
LINE
  8
0
 10
164.801
 20
83.4608
 11
164.953
 21
83.3501
  0
LINE
  8
0
 10
164.953
 20
83.3501
 11
165.09
 21
83.2211
  0
LINE
  8
0
 10
165.09
 20
83.2211
 11
165.21
 21
83.076
  0
LINE
  8
0
 10
165.21
 20
83.076
 11
165.311
 21
82.9169
  0
LINE
  8
0
 10
165.311
 20
82.9169
 11
165.392
 21
82.7465
  0
LINE
  8
0
 10
165.392
 20
82.7465
 11
165.45
 21
82.5673
  0
LINE
  8
0
 10
165.45
 20
82.5673
 11
165.485
 21
82.3823
  0
LINE
  8
0
 10
165.485
 20
82.3823
 11
165.497
 21
82.1943
  0
LINE
  8
0
 10
165.497
 20
82.1943
 11
165.497
 21
65.0943
  0
LINE
  8
0
 10
165.497
 20
65.0943
 11
165.485
 21
64.9063
  0
LINE
  8
0
 10
165.485
 20
64.9063
 11
165.45
 21
64.7213
  0
LINE
  8
0
 10
165.45
 20
64.7213
 11
165.424
 21
64.6413
  0
LINE
  8
0
 10
165.424
 20
64.6413
 11
168.262
 21
64.6413
  0
LINE
  8
0
 10
168.262
 20
64.6413
 11
168.449
 21
64.6177
  0
LINE
  8
0
 10
168.449
 20
64.6177
 11
168.632
 21
64.5709
  0
LINE
  8
0
 10
168.632
 20
64.5709
 11
168.807
 21
64.5015
  0
LINE
  8
0
 10
168.807
 20
64.5015
 11
168.972
 21
64.4108
  0
LINE
  8
0
 10
168.972
 20
64.4108
 11
169.124
 21
64.3001
  0
LINE
  8
0
 10
169.124
 20
64.3001
 11
169.262
 21
64.1711
  0
LINE
  8
0
 10
169.262
 20
64.1711
 11
169.382
 21
64.026
  0
LINE
  8
0
 10
169.382
 20
64.026
 11
169.483
 21
63.8669
  0
LINE
  8
0
 10
169.483
 20
63.8669
 11
169.563
 21
63.6965
  0
LINE
  8
0
 10
169.563
 20
63.6965
 11
169.621
 21
63.5173
  0
LINE
  8
0
 10
169.621
 20
63.5173
 11
169.656
 21
63.3323
  0
LINE
  8
0
 10
169.656
 20
63.3323
 11
169.668
 21
63.1443
  0
LINE
  8
0
 10
169.668
 20
63.1443
 11
169.668
 21
46.0443
  0
LINE
  8
0
 10
169.668
 20
46.0443
 11
169.656
 21
45.8563
  0
LINE
  8
0
 10
169.656
 20
45.8563
 11
169.621
 21
45.6712
  0
LINE
  8
0
 10
169.621
 20
45.6712
 11
169.563
 21
45.4921
  0
LINE
  8
0
 10
169.563
 20
45.4921
 11
169.483
 21
45.3217
  0
LINE
  8
0
 10
169.483
 20
45.3217
 11
169.382
 21
45.1626
  0
LINE
  8
0
 10
169.382
 20
45.1626
 11
169.262
 21
45.0175
  0
LINE
  8
0
 10
169.262
 20
45.0175
 11
169.124
 21
44.8885
  0
LINE
  8
0
 10
169.124
 20
44.8885
 11
168.972
 21
44.7778
  0
LINE
  8
0
 10
168.972
 20
44.7778
 11
168.807
 21
44.687
  0
LINE
  8
0
 10
168.807
 20
44.687
 11
168.632
 21
44.6177
  0
LINE
  8
0
 10
168.632
 20
44.6177
 11
168.449
 21
44.5709
  0
LINE
  8
0
 10
168.449
 20
44.5709
 11
168.262
 21
44.5472
  0
LINE
  8
0
 10
168.262
 20
44.5472
 11
165.916
 21
44.5472
  0
LINE
  8
0
 10
165.916
 20
44.5472
 11
165.942
 21
44.4673
  0
LINE
  8
0
 10
165.942
 20
44.4673
 11
165.977
 21
44.2823
  0
LINE
  8
0
 10
165.977
 20
44.2823
 11
165.989
 21
44.0943
  0
LINE
  8
0
 10
165.989
 20
44.0943
 11
165.989
 21
26.9943
  0
LINE
  8
0
 10
165.989
 20
26.9943
 11
165.977
 21
26.8063
  0
LINE
  8
0
 10
165.977
 20
26.8063
 11
165.942
 21
26.6212
  0
LINE
  8
0
 10
165.942
 20
26.6212
 11
165.883
 21
26.4421
  0
LINE
  8
0
 10
165.883
 20
26.4421
 11
165.803
 21
26.2717
  0
LINE
  8
0
 10
165.803
 20
26.2717
 11
165.702
 21
26.1126
  0
LINE
  8
0
 10
165.702
 20
26.1126
 11
165.582
 21
25.9675
  0
LINE
  8
0
 10
165.582
 20
25.9675
 11
165.445
 21
25.8385
  0
LINE
  8
0
 10
165.445
 20
25.8385
 11
165.292
 21
25.7278
  0
LINE
  8
0
 10
165.292
 20
25.7278
 11
165.127
 21
25.637
  0
LINE
  8
0
 10
165.127
 20
25.637
 11
164.952
 21
25.5677
  0
LINE
  8
0
 10
164.952
 20
25.5677
 11
164.77
 21
25.5209
  0
LINE
  8
0
 10
164.77
 20
25.5209
 11
164.583
 21
25.4972
  0
LINE
  8
0
 10
164.583
 20
25.4972
 11
137.769
 21
25.4972
  0
LINE
  8
0
 10
137.769
 20
25.4972
 11
137.583
 21
25.5209
  0
LINE
  8
0
 10
137.583
 20
25.5209
 11
137.4
 21
25.5677
  0
LINE
  8
0
 10
137.4
 20
25.5677
 11
137.225
 21
25.637
  0
LINE
  8
0
 10
137.225
 20
25.637
 11
137.06
 21
25.7278
  0
LINE
  8
0
 10
137.06
 20
25.7278
 11
136.908
 21
25.8385
  0
LINE
  8
0
 10
136.908
 20
25.8385
 11
136.77
 21
25.9675
  0
LINE
  8
0
 10
136.77
 20
25.9675
 11
136.65
 21
26.1126
  0
LINE
  8
0
 10
136.65
 20
26.1126
 11
136.549
 21
26.2717
  0
LINE
  8
0
 10
136.549
 20
26.2717
 11
136.469
 21
26.4421
  0
LINE
  8
0
 10
136.469
 20
26.4421
 11
136.411
 21
26.6212
  0
LINE
  8
0
 10
136.411
 20
26.6212
 11
136.375
 21
26.8063
  0
LINE
  8
0
 10
136.375
 20
26.8063
 11
136.364
 21
26.9943
  0
LINE
  8
0
 10
136.364
 20
26.9943
 11
136.364
 21
44.0943
  0
LINE
  8
0
 10
136.364
 20
44.0943
 11
136.375
 21
44.2823
  0
LINE
  8
0
 10
136.375
 20
44.2823
 11
136.411
 21
44.4673
  0
LINE
  8
0
 10
136.411
 20
44.4673
 11
136.437
 21
44.5472
  0
LINE
  8
0
 10
136.437
 20
44.5472
 11
85.1156
 21
44.5472
  0
LINE
  8
0
 10
85.1156
 20
44.5472
 11
85.1393
 21
44.4621
  0
LINE
  8
0
 10
85.1393
 20
44.4621
 11
88.6946
 21
27.7358
  0
LINE
  8
0
 10
88.6946
 20
27.7358
 11
88.7221
 21
27.5495
  0
LINE
  8
0
 10
88.7221
 20
27.5495
 11
88.7261
 21
27.3611
  0
LINE
  8
0
 10
88.7261
 20
27.3611
 11
88.7064
 21
27.1738
  0
LINE
  8
0
 10
88.7064
 20
27.1738
 11
88.6634
 21
26.9904
  0
LINE
  8
0
 10
88.6634
 20
26.9904
 11
88.5977
 21
26.8138
  0
LINE
  8
0
 10
88.5977
 20
26.8138
 11
88.5104
 21
26.6469
  0
LINE
  8
0
 10
88.5104
 20
26.6469
 11
88.4029
 21
26.4922
  0
LINE
  8
0
 10
88.4029
 20
26.4922
 11
88.2769
 21
26.3522
  0
LINE
  8
0
 10
88.2769
 20
26.3522
 11
88.1343
 21
26.2291
  0
LINE
  8
0
 10
88.1343
 20
26.2291
 11
87.9774
 21
26.1249
  0
LINE
  8
0
 10
87.9774
 20
26.1249
 11
87.8087
 21
26.0412
  0
LINE
  8
0
 10
87.8087
 20
26.0412
 11
87.6308
 21
25.9792
  0
LINE
  8
0
 10
87.6308
 20
25.9792
 11
61.4034
 21
20.4044
  0
LINE
  8
0
 10
61.4034
 20
20.4044
 11
61.2156
 21
20.3886
  0
LINE
  8
0
 10
61.2156
 20
20.3886
 11
61.0274
 21
20.3965
  0
LINE
  8
0
 10
61.0274
 20
20.3965
 11
60.8417
 21
20.4279
  0
LINE
  8
0
 10
60.8417
 20
20.4279
 11
60.6614
 21
20.4824
  0
LINE
  8
0
 10
60.6614
 20
20.4824
 11
60.4893
 21
20.559
  0
LINE
  8
0
 10
60.4893
 20
20.559
 11
60.3282
 21
20.6566
  0
LINE
  8
0
 10
60.3282
 20
20.6566
 11
60.1805
 21
20.7736
  0
LINE
  8
0
 10
60.1805
 20
20.7736
 11
60.0487
 21
20.9082
  0
LINE
  8
0
 10
60.0487
 20
20.9082
 11
59.9348
 21
21.0582
  0
LINE
  8
0
 10
59.9348
 20
21.0582
 11
59.8407
 21
21.2213
  0
LINE
  8
0
 10
59.8407
 20
21.2213
 11
59.7677
 21
21.395
  0
LINE
  8
0
 10
59.7677
 20
21.395
 11
59.717
 21
21.5764
  0
LINE
  8
0
 10
59.717
 20
21.5764
 11
59.7142
 21
21.5896
  0
LINE
  8
0
 10
59.7142
 20
21.5896
 11
9.38075
 21
10.8909
  0
LINE
  8
0
 10
9.38075
 20
10.8909
 11
9.19304
 21
10.8751
  0
LINE
  8
0
 10
9.19304
 20
10.8751
 11
9.00484
 21
10.883
  0
ENDSEC
  0
SECTION
  2
OBJECTS
  0
DICTIONARY
  0
ENDSEC
  0
EOF
