<?xml version="1.0" standalone="no"?>
<!DOCTYPE svg PUBLIC "-//W3C//DTD SVG 1.1//EN" "http://www.w3.org/Graphics/SVG/1.1/DTD/svg11.dtd">
<svg width="352mm" height="133mm" viewBox="-176 -133 352 133" xmlns="http://www.w3.org/2000/svg" version="1.1">
<title>OpenSCAD Model</title>
<path d="
M 174.024,-0.0354156 L 174.267,-0.0978851 L 174.501,-0.190338 L 174.721,-0.31134 L 174.924,-0.458969 L 175.107,-0.630905
 L 175.267,-0.824417 L 175.402,-1.03648 L 175.509,-1.26375 L 175.587,-1.50261 L 175.634,-1.74933 L 175.649,-2
 L 175.649,-130.914 L 175.634,-131.165 L 175.587,-131.412 L 175.509,-131.651 L 175.402,-131.878 L 175.267,-132.09
 L 175.107,-132.283 L 174.924,-132.455 L 174.721,-132.603 L 174.501,-132.724 L 174.267,-132.816 L 174.024,-132.879
 L 173.775,-132.91 L -173.775,-132.91 L -174.024,-132.879 L -174.267,-132.816 L -174.501,-132.724 L -174.721,-132.603
 L -174.924,-132.455 L -175.107,-132.283 L -175.267,-132.09 L -175.402,-131.878 L -175.509,-131.651 L -175.587,-131.412
 L -175.634,-131.165 L -175.649,-130.914 L -175.649,-2 L -175.634,-1.74933 L -175.587,-1.50261 L -175.509,-1.26375
 L -175.402,-1.03648 L -175.267,-0.824417 L -175.107,-0.630905 L -174.924,-0.458969 L -174.721,-0.31134 L -174.501,-0.190338
 L -174.267,-0.0978851 L -174.024,-0.0354156 L -173.775,-0.00393677 L 173.775,-0.00393677 z
M 56.9399,-126.668 L 56.7219,-126.695 L 56.509,-126.75 L 56.3047,-126.831 L 56.1121,-126.937 L 55.9343,-127.066
 L 55.7741,-127.216 L 55.634,-127.386 L 55.5163,-127.571 L 55.4227,-127.77 L 55.3548,-127.979 L 55.3136,-128.195
 L 55.2998,-128.414 L 55.3136,-128.634 L 55.3548,-128.85 L 55.4227,-129.059 L 55.5163,-129.257 L 55.634,-129.443
 L 55.7741,-129.612 L 55.9343,-129.763 L 56.1121,-129.892 L 56.3047,-129.998 L 56.509,-130.079 L 56.7219,-130.133
 L 56.9399,-130.161 L 57.1597,-130.161 L 57.3777,-130.133 L 57.5906,-130.079 L 57.7949,-129.998 L 57.9875,-129.892
 L 58.1653,-129.763 L 58.3255,-129.612 L 58.4656,-129.443 L 58.5833,-129.257 L 58.6769,-129.059 L 58.7448,-128.85
 L 58.786,-128.634 L 58.7998,-128.414 L 58.786,-128.195 L 58.7448,-127.979 L 58.6769,-127.77 L 58.5833,-127.571
 L 58.4656,-127.386 L 58.3255,-127.216 L 58.1653,-127.066 L 57.9875,-126.937 L 57.7949,-126.831 L 57.5906,-126.75
 L 57.3777,-126.695 L 57.1597,-126.668 z
M 171.04,-126.668 L 170.821,-126.695 L 170.609,-126.75 L 170.404,-126.831 L 170.212,-126.937 L 170.034,-127.066
 L 169.874,-127.216 L 169.734,-127.386 L 169.616,-127.571 L 169.522,-127.77 L 169.454,-127.979 L 169.413,-128.195
 L 169.399,-128.414 L 169.413,-128.634 L 169.454,-128.85 L 169.522,-129.059 L 169.616,-129.257 L 169.734,-129.443
 L 169.874,-129.612 L 170.034,-129.763 L 170.212,-129.892 L 170.404,-129.998 L 170.609,-130.079 L 170.821,-130.133
 L 171.04,-130.161 L 171.259,-130.161 L 171.477,-130.133 L 171.69,-130.079 L 171.895,-129.998 L 172.087,-129.892
 L 172.265,-129.763 L 172.425,-129.612 L 172.565,-129.443 L 172.683,-129.257 L 172.777,-129.059 L 172.844,-128.85
 L 172.886,-128.634 L 172.899,-128.414 L 172.886,-128.195 L 172.844,-127.979 L 172.777,-127.77 L 172.683,-127.571
 L 172.565,-127.386 L 172.425,-127.216 L 172.265,-127.066 L 172.087,-126.937 L 171.895,-126.831 L 171.69,-126.75
 L 171.477,-126.695 L 171.259,-126.668 z
M -57.1597,-126.668 L -57.3777,-126.695 L -57.5906,-126.75 L -57.7949,-126.831 L -57.9875,-126.937 L -58.1653,-127.066
 L -58.3255,-127.216 L -58.4656,-127.386 L -58.5833,-127.571 L -58.6769,-127.77 L -58.7448,-127.979 L -58.786,-128.195
 L -58.7998,-128.414 L -58.786,-128.634 L -58.7448,-128.85 L -58.6769,-129.059 L -58.5833,-129.257 L -58.4656,-129.443
 L -58.3255,-129.612 L -58.1653,-129.763 L -57.9875,-129.892 L -57.7949,-129.998 L -57.5906,-130.079 L -57.3777,-130.133
 L -57.1597,-130.161 L -56.9399,-130.161 L -56.7219,-130.133 L -56.509,-130.079 L -56.3047,-129.998 L -56.1121,-129.892
 L -55.9343,-129.763 L -55.7741,-129.612 L -55.634,-129.443 L -55.5163,-129.257 L -55.4227,-129.059 L -55.3548,-128.85
 L -55.3136,-128.634 L -55.2998,-128.414 L -55.3136,-128.195 L -55.3548,-127.979 L -55.4227,-127.77 L -55.5163,-127.571
 L -55.634,-127.386 L -55.7741,-127.216 L -55.9343,-127.066 L -56.1121,-126.937 L -56.3047,-126.831 L -56.509,-126.75
 L -56.7219,-126.695 L -56.9399,-126.668 z
M -171.259,-126.668 L -171.477,-126.695 L -171.69,-126.75 L -171.895,-126.831 L -172.087,-126.937 L -172.265,-127.066
 L -172.425,-127.216 L -172.565,-127.386 L -172.683,-127.571 L -172.777,-127.77 L -172.844,-127.979 L -172.886,-128.195
 L -172.899,-128.414 L -172.886,-128.634 L -172.844,-128.85 L -172.777,-129.059 L -172.683,-129.257 L -172.565,-129.443
 L -172.425,-129.612 L -172.265,-129.763 L -172.087,-129.892 L -171.895,-129.998 L -171.69,-130.079 L -171.477,-130.133
 L -171.259,-130.161 L -171.04,-130.161 L -170.821,-130.133 L -170.609,-130.079 L -170.404,-129.998 L -170.212,-129.892
 L -170.034,-129.763 L -169.874,-129.612 L -169.734,-129.443 L -169.616,-129.257 L -169.522,-129.059 L -169.454,-128.85
 L -169.413,-128.634 L -169.399,-128.414 L -169.413,-128.195 L -169.454,-127.979 L -169.522,-127.77 L -169.616,-127.571
 L -169.734,-127.386 L -169.874,-127.216 L -170.034,-127.066 L -170.212,-126.937 L -170.404,-126.831 L -170.609,-126.75
 L -170.821,-126.695 L -171.04,-126.668 z
M -168.264,-65.7372 L -168.45,-65.7609 L -168.633,-65.8077 L -168.808,-65.877 L -168.973,-65.9678 L -169.125,-66.0785
 L -169.263,-66.2075 L -169.383,-66.3526 L -169.484,-66.5117 L -169.564,-66.6821 L -169.622,-66.8613 L -169.658,-67.0463
 L -169.669,-67.2343 L -169.669,-84.3343 L -169.658,-84.5223 L -169.622,-84.7073 L -169.564,-84.8865 L -169.484,-85.0569
 L -169.383,-85.216 L -169.263,-85.3611 L -169.125,-85.4901 L -168.973,-85.6008 L -168.808,-85.6915 L -168.633,-85.7609
 L -168.45,-85.8077 L -168.264,-85.8313 L -165.526,-85.8313 L -165.552,-85.9112 L -165.588,-86.0963 L -165.599,-86.2843
 L -165.599,-103.384 L -165.588,-103.572 L -165.552,-103.757 L -165.494,-103.936 L -165.414,-104.107 L -165.313,-104.266
 L -165.193,-104.411 L -165.055,-104.54 L -164.903,-104.651 L -164.738,-104.742 L -164.563,-104.811 L -164.38,-104.858
 L -164.194,-104.881 L -161.366,-104.881 L -161.392,-104.961 L -161.428,-105.146 L -161.439,-105.334 L -161.439,-122.434
 L -161.428,-122.622 L -161.392,-122.807 L -161.334,-122.986 L -161.254,-123.157 L -161.153,-123.316 L -161.033,-123.461
 L -160.895,-123.59 L -160.743,-123.701 L -160.578,-123.792 L -160.403,-123.861 L -160.22,-123.908 L -160.034,-123.931
 L -142.745,-123.931 L -142.558,-123.908 L -142.376,-123.861 L -142.201,-123.792 L -142.036,-123.701 L -141.883,-123.59
 L -141.746,-123.461 L -141.626,-123.316 L -141.525,-123.157 L -141.445,-122.986 L -141.386,-122.807 L -141.351,-122.622
 L -141.339,-122.434 L -141.339,-105.334 L -141.351,-105.146 L -141.386,-104.961 L -141.445,-104.782 L -141.525,-104.612
 L -141.626,-104.453 L -141.746,-104.307 L -141.883,-104.179 L -142.036,-104.068 L -142.201,-103.977 L -142.376,-103.908
 L -142.558,-103.861 L -142.745,-103.837 L -145.572,-103.837 L -145.546,-103.757 L -145.511,-103.572 L -145.499,-103.384
 L -145.499,-86.2843 L -145.511,-86.0963 L -145.546,-85.9112 L -145.605,-85.7321 L -145.685,-85.5616 L -145.786,-85.4026
 L -145.906,-85.2575 L -146.043,-85.1285 L -146.196,-85.0178 L -146.361,-84.927 L -146.536,-84.8577 L -146.718,-84.8109
 L -146.905,-84.7872 L -149.642,-84.7872 L -149.616,-84.7073 L -149.581,-84.5223 L -149.569,-84.3343 L -149.569,-67.2343
 L -149.581,-67.0463 L -149.616,-66.8613 L -149.675,-66.6821 L -149.755,-66.5117 L -149.856,-66.3526 L -149.976,-66.2075
 L -150.113,-66.0785 L -150.266,-65.9678 L -150.431,-65.877 L -150.606,-65.8077 L -150.788,-65.7609 L -150.975,-65.7372
 z
M -9.7794,-8.91202 L -69.4297,-21.5911 L -69.4325,-21.5779 L -69.4832,-21.3965 L -69.5562,-21.2228 L -69.6504,-21.0597
 L -69.7643,-20.9097 L -69.896,-20.7751 L -70.0437,-20.6581 L -70.2048,-20.5605 L -70.3769,-20.4839 L -70.5572,-20.4294
 L -70.743,-20.398 L -70.9312,-20.3901 L -71.1189,-20.4059 L -97.3463,-25.9807 L -97.5242,-26.0426 L -97.6929,-26.1264
 L -97.8498,-26.2306 L -97.9924,-26.3537 L -98.1185,-26.4937 L -98.226,-26.6484 L -98.3132,-26.8153 L -98.3789,-26.9919
 L -98.4219,-27.1753 L -98.4416,-27.3626 L -98.4376,-27.551 L -98.4101,-27.7373 L -94.8548,-44.4636 L -94.8315,-44.5472
 L -121.187,-44.5472 L -121.187,-26.9943 L -121.199,-26.8063 L -121.234,-26.6212 L -121.292,-26.4421 L -121.372,-26.2717
 L -121.473,-26.1126 L -121.593,-25.9675 L -121.731,-25.8385 L -121.883,-25.7278 L -122.048,-25.637 L -122.223,-25.5677
 L -122.406,-25.5209 L -122.593,-25.4972 L -149.406,-25.4972 L -149.593,-25.5209 L -149.775,-25.5677 L -149.951,-25.637
 L -150.116,-25.7278 L -150.268,-25.8385 L -150.405,-25.9675 L -150.525,-26.1126 L -150.626,-26.2717 L -150.706,-26.4421
 L -150.765,-26.6212 L -150.8,-26.8063 L -150.812,-26.9943 L -150.812,-45.9849 L -150.816,-46.0443 L -150.816,-63.1443
 L -150.804,-63.3323 L -150.768,-63.5173 L -150.71,-63.6965 L -150.63,-63.8669 L -150.529,-64.026 L -150.409,-64.1711
 L -150.272,-64.3001 L -150.119,-64.4108 L -149.954,-64.5015 L -149.779,-64.5709 L -149.597,-64.6177 L -149.41,-64.6413
 L -146.578,-64.6413 L -146.604,-64.7213 L -146.639,-64.9063 L -146.651,-65.0943 L -146.651,-82.1943 L -146.639,-82.3823
 L -146.604,-82.5673 L -146.545,-82.7465 L -146.465,-82.9169 L -146.364,-83.076 L -146.244,-83.2211 L -146.107,-83.3501
 L -145.955,-83.4608 L -145.789,-83.5515 L -145.614,-83.6209 L -145.432,-83.6677 L -145.245,-83.6913 L -142.509,-83.6913
 L -142.535,-83.7712 L -142.57,-83.9563 L -142.582,-84.1443 L -142.582,-101.244 L -142.57,-101.432 L -142.535,-101.617
 L -142.477,-101.796 L -142.396,-101.967 L -142.295,-102.126 L -142.175,-102.271 L -142.038,-102.4 L -141.886,-102.511
 L -141.721,-102.602 L -141.545,-102.671 L -141.363,-102.718 L -141.176,-102.741 L -138.346,-102.741 L -138.372,-102.821
 L -138.408,-103.006 L -138.419,-103.194 L -138.419,-120.294 L -138.408,-120.482 L -138.372,-120.667 L -138.314,-120.846
 L -138.234,-121.017 L -138.133,-121.176 L -138.013,-121.321 L -137.875,-121.45 L -137.723,-121.561 L -137.558,-121.652
 L -137.383,-121.721 L -137.2,-121.768 L -137.014,-121.791 L -100.729,-121.791 L -100.729,-122.434 L -100.717,-122.622
 L -100.682,-122.807 L -100.624,-122.986 L -100.544,-123.157 L -100.443,-123.316 L -100.323,-123.461 L -100.185,-123.59
 L -100.033,-123.701 L -99.868,-123.792 L -99.6929,-123.861 L -99.5104,-123.908 L -99.3235,-123.931 L -82.0352,-123.931
 L -81.8483,-123.908 L -81.6658,-123.861 L -81.4907,-123.792 L -81.3256,-123.701 L -81.1732,-123.59 L -81.0359,-123.461
 L -80.9158,-123.316 L -80.8149,-123.157 L -80.7347,-122.986 L -80.6765,-122.807 L -80.6412,-122.622 L -80.6293,-122.434
 L -80.6293,-122.417 L -3.73402,-106.072 L -3.55614,-106.01 L -3.38741,-105.927 L -3.23051,-105.822 L -3.08792,-105.699
 L -2.96187,-105.559 L -2.85435,-105.405 L -2.76709,-105.238 L -2.70143,-105.061 L -2.65842,-104.878 L -2.63872,-104.69
 L -2.64267,-104.502 L -2.6702,-104.316 L -6.22548,-87.5895 L -6.27614,-87.408 L -6.34914,-87.2344 L -6.44331,-87.0712
 L -6.55721,-86.9212 L -6.689,-86.7866 L -6.83662,-86.6696 L -6.99774,-86.572 L -7.16985,-86.4954 L -7.35017,-86.4409
 L -7.5359,-86.4095 L -7.72411,-86.4017 L -7.91182,-86.4174 L -15.9251,-88.1207 L -15.9163,-88.0371 L -15.9202,-87.8488
 L -15.9478,-87.6624 L -19.5031,-70.9361 L -19.5537,-70.7547 L -19.6267,-70.581 L -19.6687,-70.5082 L -16.3139,-69.7952
 L -16.136,-69.7332 L -15.9673,-69.6494 L -15.8104,-69.5452 L -15.6678,-69.4221 L -15.5417,-69.2821 L -15.4342,-69.1274
 L -15.347,-68.9605 L -15.2813,-68.784 L -15.2383,-68.6006 L -15.2186,-68.4132 L -15.2225,-68.2249 L -15.2501,-68.0385
 L -18.8053,-51.3122 L -18.856,-51.1308 L -18.929,-50.9571 L -18.971,-50.8844 L -10.9577,-49.1811 L -10.7799,-49.1191
 L -10.6111,-49.0354 L -10.4542,-48.9311 L -10.3116,-48.808 L -10.1856,-48.6681 L -10.0781,-48.5134 L -9.99081,-48.3465
 L -9.92516,-48.1699 L -9.88214,-47.9865 L -9.86244,-47.7991 L -9.86639,-47.6108 L -9.89392,-47.4245 L -13.4492,-30.6982
 L -13.4999,-30.5167 L -13.5729,-30.343 L -13.6149,-30.2703 L -5.60161,-28.567 L -5.42372,-28.5051 L -5.25499,-28.4213
 L -5.0981,-28.3171 L -4.95551,-28.194 L -4.82945,-28.054 L -4.72194,-27.8993 L -4.63467,-27.7324 L -4.56902,-27.5558
 L -4.526,-27.3724 L -4.50632,-27.1851 L -4.51025,-26.9967 L -4.53778,-26.8104 L -8.09306,-10.0841 L -8.14372,-9.90265
 L -8.21672,-9.72899 L -8.3109,-9.56584 L -8.42479,-9.4158 L -8.55658,-9.28122 L -8.70421,-9.16422 L -8.86534,-9.06664
 L -9.03743,-8.99002 L -9.21776,-8.93556 L -9.40349,-8.90416 L -9.59169,-8.89627 z
M 9.00484,-10.883 L 8.81911,-10.9144 L 8.63876,-10.9689 L 8.46667,-11.0455 L 8.30556,-11.1431 L 8.15793,-11.2601
 L 8.02612,-11.3947 L 7.91225,-11.5447 L 7.81805,-11.7078 L 7.74506,-11.8815 L 7.6944,-12.0629 L 0.178391,-47.423
 L 0.150879,-47.6093 L 0.146927,-47.7976 L 0.166626,-47.985 L 0.209625,-48.1684 L 0.275299,-48.3449 L 0.362564,-48.5119
 L 0.470062,-48.6665 L 0.596115,-48.8065 L 0.738724,-48.9296 L 0.895615,-49.0339 L 1.06433,-49.1176 L 1.24223,-49.1796
 L 9.25549,-50.8828 L 9.21347,-50.9556 L 9.14047,-51.1293 L 9.08983,-51.3107 L 5.53453,-68.037 L 5.50702,-68.2234
 L 5.50307,-68.4117 L 5.51186,-68.4953 L 2.15701,-67.7822 L 1.9693,-67.7664 L 1.7811,-67.7743 L 1.59537,-67.8057
 L 1.41504,-67.8602 L 1.24295,-67.9368 L 1.08182,-68.0344 L 0.934204,-68.1514 L 0.802399,-68.286 L 0.688522,-68.436
 L 0.59433,-68.5992 L 0.521332,-68.7728 L 0.470673,-68.9543 L -3.08459,-85.6806 L -3.11212,-85.8669 L -3.11606,-86.0552
 L -3.09637,-86.2426 L -3.05336,-86.426 L -2.9877,-86.6025 L -2.90042,-86.7695 L -2.79292,-86.9242 L -2.66687,-87.0641
 L -2.52428,-87.1872 L -2.36739,-87.2915 L -2.19865,-87.3752 L -2.02077,-87.4372 L 5.99248,-89.1404 L 5.95047,-89.2132
 L 5.87747,-89.3869 L 5.82681,-89.5683 L 2.27153,-106.295 L 2.244,-106.481 L 2.24007,-106.669 L 2.25975,-106.857
 L 2.30276,-107.04 L 2.36842,-107.217 L 2.45569,-107.384 L 2.5632,-107.538 L 2.68925,-107.678 L 2.83185,-107.801
 L 2.98874,-107.906 L 3.15747,-107.989 L 3.33536,-108.051 L 76.6129,-123.627 L 76.8006,-123.643 L 76.9888,-123.635
 L 77.019,-123.63 L 77.1169,-123.701 L 77.282,-123.792 L 77.4571,-123.861 L 77.6396,-123.908 L 77.8265,-123.931
 L 98.9248,-123.931 L 99.1117,-123.908 L 99.2942,-123.861 L 99.4693,-123.792 L 99.6344,-123.701 L 99.7868,-123.59
 L 99.9241,-123.461 L 100.044,-123.316 L 100.145,-123.157 L 100.225,-122.986 L 100.284,-122.807 L 100.319,-122.622
 L 100.331,-122.434 L 100.331,-121.791 L 155.655,-121.791 L 155.842,-121.768 L 156.024,-121.721 L 156.199,-121.652
 L 156.364,-121.561 L 156.517,-121.45 L 156.654,-121.321 L 156.774,-121.176 L 156.875,-121.017 L 156.955,-120.846
 L 157.014,-120.667 L 157.049,-120.482 L 157.061,-120.294 L 157.061,-103.194 L 157.049,-103.006 L 157.014,-102.821
 L 156.988,-102.741 L 159.82,-102.741 L 160.007,-102.718 L 160.189,-102.671 L 160.364,-102.602 L 160.529,-102.511
 L 160.682,-102.4 L 160.819,-102.271 L 160.939,-102.126 L 161.04,-101.967 L 161.12,-101.796 L 161.179,-101.617
 L 161.214,-101.432 L 161.226,-101.244 L 161.226,-84.1443 L 161.214,-83.9563 L 161.179,-83.7712 L 161.153,-83.6913
 L 164.091,-83.6913 L 164.278,-83.6677 L 164.46,-83.6209 L 164.636,-83.5515 L 164.801,-83.4608 L 164.953,-83.3501
 L 165.09,-83.2211 L 165.21,-83.076 L 165.311,-82.9169 L 165.392,-82.7465 L 165.45,-82.5673 L 165.485,-82.3823
 L 165.497,-82.1943 L 165.497,-65.0943 L 165.485,-64.9063 L 165.45,-64.7213 L 165.424,-64.6413 L 168.262,-64.6413
 L 168.449,-64.6177 L 168.632,-64.5709 L 168.807,-64.5015 L 168.972,-64.4108 L 169.124,-64.3001 L 169.262,-64.1711
 L 169.382,-64.026 L 169.483,-63.8669 L 169.563,-63.6965 L 169.621,-63.5173 L 169.656,-63.3323 L 169.668,-63.1443
 L 169.668,-46.0443 L 169.656,-45.8563 L 169.621,-45.6712 L 169.563,-45.4921 L 169.483,-45.3217 L 169.382,-45.1626
 L 169.262,-45.0175 L 169.124,-44.8885 L 168.972,-44.7778 L 168.807,-44.687 L 168.632,-44.6177 L 168.449,-44.5709
 L 168.262,-44.5472 L 165.916,-44.5472 L 165.942,-44.4673 L 165.977,-44.2823 L 165.989,-44.0943 L 165.989,-26.9943
 L 165.977,-26.8063 L 165.942,-26.6212 L 165.883,-26.4421 L 165.803,-26.2717 L 165.702,-26.1126 L 165.582,-25.9675
 L 165.445,-25.8385 L 165.292,-25.7278 L 165.127,-25.637 L 164.952,-25.5677 L 164.77,-25.5209 L 164.583,-25.4972
 L 137.769,-25.4972 L 137.583,-25.5209 L 137.4,-25.5677 L 137.225,-25.637 L 137.06,-25.7278 L 136.908,-25.8385
 L 136.77,-25.9675 L 136.65,-26.1126 L 136.549,-26.2717 L 136.469,-26.4421 L 136.411,-26.6212 L 136.375,-26.8063
 L 136.364,-26.9943 L 136.364,-44.0943 L 136.375,-44.2823 L 136.411,-44.4673 L 136.437,-44.5472 L 85.1156,-44.5472
 L 85.1393,-44.4621 L 88.6946,-27.7358 L 88.7221,-27.5495 L 88.7261,-27.3611 L 88.7064,-27.1738 L 88.6634,-26.9904
 L 88.5977,-26.8138 L 88.5104,-26.6469 L 88.4029,-26.4922 L 88.2769,-26.3522 L 88.1343,-26.2291 L 87.9774,-26.1249
 L 87.8087,-26.0412 L 87.6308,-25.9792 L 61.4034,-20.4044 L 61.2156,-20.3886 L 61.0274,-20.3965 L 60.8417,-20.4279
 L 60.6614,-20.4824 L 60.4893,-20.559 L 60.3282,-20.6566 L 60.1805,-20.7736 L 60.0487,-20.9082 L 59.9348,-21.0582
 L 59.8407,-21.2213 L 59.7677,-21.395 L 59.717,-21.5764 L 59.7142,-21.5896 L 9.38075,-10.8909 L 9.19304,-10.8751
 z
M 56.9399,-2.75345 L 56.7219,-2.78099 L 56.509,-2.83565 L 56.3047,-2.91655 L 56.1121,-3.02242 L 55.9343,-3.1516
 L 55.7741,-3.30203 L 55.634,-3.47137 L 55.5163,-3.65692 L 55.4227,-3.85577 L 55.3548,-4.06479 L 55.3136,-4.28065
 L 55.2998,-4.5 L 55.3136,-4.71933 L 55.3548,-4.9352 L 55.4227,-5.14421 L 55.5163,-5.34306 L 55.634,-5.52861
 L 55.7741,-5.69795 L 55.9343,-5.84839 L 56.1121,-5.97757 L 56.3047,-6.08344 L 56.509,-6.16434 L 56.7219,-6.21899
 L 56.9399,-6.24654 L 57.1597,-6.24654 L 57.3777,-6.21899 L 57.5906,-6.16434 L 57.7949,-6.08344 L 57.9875,-5.97757
 L 58.1653,-5.84839 L 58.3255,-5.69795 L 58.4656,-5.52861 L 58.5833,-5.34306 L 58.6769,-5.14421 L 58.7448,-4.9352
 L 58.786,-4.71933 L 58.7998,-4.5 L 58.786,-4.28065 L 58.7448,-4.06479 L 58.6769,-3.85577 L 58.5833,-3.65692
 L 58.4656,-3.47137 L 58.3255,-3.30203 L 58.1653,-3.1516 L 57.9875,-3.02242 L 57.7949,-2.91655 L 57.5906,-2.83565
 L 57.3777,-2.78099 L 57.1597,-2.75345 z
M 171.04,-2.75345 L 170.821,-2.78099 L 170.609,-2.83565 L 170.404,-2.91655 L 170.212,-3.02242 L 170.034,-3.1516
 L 169.874,-3.30203 L 169.734,-3.47137 L 169.616,-3.65692 L 169.522,-3.85577 L 169.454,-4.06479 L 169.413,-4.28065
 L 169.399,-4.5 L 169.413,-4.71933 L 169.454,-4.9352 L 169.522,-5.14421 L 169.616,-5.34306 L 169.734,-5.52861
 L 169.874,-5.69795 L 170.034,-5.84839 L 170.212,-5.97757 L 170.404,-6.08344 L 170.609,-6.16434 L 170.821,-6.21899
 L 171.04,-6.24654 L 171.259,-6.24654 L 171.477,-6.21899 L 171.69,-6.16434 L 171.895,-6.08344 L 172.087,-5.97757
 L 172.265,-5.84839 L 172.425,-5.69795 L 172.565,-5.52861 L 172.683,-5.34306 L 172.777,-5.14421 L 172.844,-4.9352
 L 172.886,-4.71933 L 172.899,-4.5 L 172.886,-4.28065 L 172.844,-4.06479 L 172.777,-3.85577 L 172.683,-3.65692
 L 172.565,-3.47137 L 172.425,-3.30203 L 172.265,-3.1516 L 172.087,-3.02242 L 171.895,-2.91655 L 171.69,-2.83565
 L 171.477,-2.78099 L 171.259,-2.75345 z
M -57.1597,-2.75345 L -57.3777,-2.78099 L -57.5906,-2.83565 L -57.7949,-2.91655 L -57.9875,-3.02242 L -58.1653,-3.1516
 L -58.3255,-3.30203 L -58.4656,-3.47137 L -58.5833,-3.65692 L -58.6769,-3.85577 L -58.7448,-4.06479 L -58.786,-4.28065
 L -58.7998,-4.5 L -58.786,-4.71933 L -58.7448,-4.9352 L -58.6769,-5.14421 L -58.5833,-5.34306 L -58.4656,-5.52861
 L -58.3255,-5.69795 L -58.1653,-5.84839 L -57.9875,-5.97757 L -57.7949,-6.08344 L -57.5906,-6.16434 L -57.3777,-6.21899
 L -57.1597,-6.24654 L -56.9399,-6.24654 L -56.7219,-6.21899 L -56.509,-6.16434 L -56.3047,-6.08344 L -56.1121,-5.97757
 L -55.9343,-5.84839 L -55.7741,-5.69795 L -55.634,-5.52861 L -55.5163,-5.34306 L -55.4227,-5.14421 L -55.3548,-4.9352
 L -55.3136,-4.71933 L -55.2998,-4.5 L -55.3136,-4.28065 L -55.3548,-4.06479 L -55.4227,-3.85577 L -55.5163,-3.65692
 L -55.634,-3.47137 L -55.7741,-3.30203 L -55.9343,-3.1516 L -56.1121,-3.02242 L -56.3047,-2.91655 L -56.509,-2.83565
 L -56.7219,-2.78099 L -56.9399,-2.75345 z
M -171.259,-2.75345 L -171.477,-2.78099 L -171.69,-2.83565 L -171.895,-2.91655 L -172.087,-3.02242 L -172.265,-3.1516
 L -172.425,-3.30203 L -172.565,-3.47137 L -172.683,-3.65692 L -172.777,-3.85577 L -172.844,-4.06479 L -172.886,-4.28065
 L -172.899,-4.5 L -172.886,-4.71933 L -172.844,-4.9352 L -172.777,-5.14421 L -172.683,-5.34306 L -172.565,-5.52861
 L -172.425,-5.69795 L -172.265,-5.84839 L -172.087,-5.97757 L -171.895,-6.08344 L -171.69,-6.16434 L -171.477,-6.21899
 L -171.259,-6.24654 L -171.04,-6.24654 L -170.821,-6.21899 L -170.609,-6.16434 L -170.404,-6.08344 L -170.212,-5.97757
 L -170.034,-5.84839 L -169.874,-5.69795 L -169.734,-5.52861 L -169.616,-5.34306 L -169.522,-5.14421 L -169.454,-4.9352
 L -169.413,-4.71933 L -169.399,-4.5 L -169.413,-4.28065 L -169.454,-4.06479 L -169.522,-3.85577 L -169.616,-3.65692
 L -169.734,-3.47137 L -169.874,-3.30203 L -170.034,-3.1516 L -170.212,-3.02242 L -170.404,-2.91655 L -170.609,-2.83565
 L -170.821,-2.78099 L -171.04,-2.75345 z
" stroke="black" fill="lightgray" stroke-width="0.5"/>
</svg>
