<?xml version="1.0" standalone="no"?>
<!DOCTYPE svg PUBLIC "-//W3C//DTD SVG 1.1//EN" "http://www.w3.org/Graphics/SVG/1.1/DTD/svg11.dtd">
<svg width="352mm" height="133mm" viewBox="-176 -133 352 133" xmlns="http://www.w3.org/2000/svg" version="1.1">
<title>OpenSCAD Model</title>
<path d="
M 174.024,-0.0354156 L 174.267,-0.0978851 L 174.501,-0.190338 L 174.721,-0.31134 L 174.924,-0.458969 L 175.107,-0.630905
 L 175.267,-0.824417 L 175.402,-1.03648 L 175.509,-1.26375 L 175.587,-1.50261 L 175.634,-1.74933 L 175.649,-2
 L 175.649,-130.914 L 175.634,-131.165 L 175.587,-131.412 L 175.509,-131.651 L 175.402,-131.878 L 175.267,-132.09
 L 175.107,-132.283 L 174.924,-132.455 L 174.721,-132.603 L 174.501,-132.724 L 174.267,-132.816 L 174.024,-132.879
 L 173.775,-132.91 L 3.40475,-132.91 L -6.24792,-87.498 L -6.30989,-87.3201 L -6.39365,-87.1513 L -6.49788,-86.9944
 L -6.62097,-86.8518 L -6.76096,-86.7258 L -6.91565,-86.6183 L -7.08258,-86.531 L -7.25912,-86.4653 L -7.44252,-86.4223
 L -7.62987,-86.4026 L -7.81821,-86.4066 L -8.00456,-86.4341 L -24.7309,-89.9894 L -24.9123,-90.0401 L -25.086,-90.1131
 L -25.2491,-90.2072 L -25.3991,-90.3211 L -25.5337,-90.4529 L -25.6507,-90.6006 L -25.7483,-90.7617 L -25.8249,-90.9338
 L -25.8794,-91.1141 L -25.9108,-91.2998 L -25.9187,-91.4881 L -25.9029,-91.6758 L -17.1382,-132.91 L -173.775,-132.91
 L -174.024,-132.879 L -174.267,-132.816 L -174.501,-132.724 L -174.721,-132.603 L -174.924,-132.455 L -175.107,-132.283
 L -175.267,-132.09 L -175.402,-131.878 L -175.509,-131.651 L -175.587,-131.412 L -175.634,-131.165 L -175.649,-130.914
 L -175.649,-2 L -175.634,-1.74933 L -175.587,-1.50261 L -175.509,-1.26375 L -175.402,-1.03648 L -175.267,-0.824417
 L -175.107,-0.630905 L -174.924,-0.458969 L -174.721,-0.31134 L -174.501,-0.190338 L -174.267,-0.0978851 L -174.024,-0.0354156
 L -173.775,-0.00393677 L 173.775,-0.00393677 z
M 56.9399,-126.668 L 56.7219,-126.695 L 56.509,-126.75 L 56.3047,-126.831 L 56.1121,-126.937 L 55.9343,-127.066
 L 55.7741,-127.216 L 55.634,-127.386 L 55.5163,-127.571 L 55.4227,-127.77 L 55.3548,-127.979 L 55.3136,-128.195
 L 55.2998,-128.414 L 55.3136,-128.634 L 55.3548,-128.85 L 55.4227,-129.059 L 55.5163,-129.257 L 55.634,-129.443
 L 55.7741,-129.612 L 55.9343,-129.763 L 56.1121,-129.892 L 56.3047,-129.998 L 56.509,-130.079 L 56.7219,-130.133
 L 56.9399,-130.161 L 57.1597,-130.161 L 57.3777,-130.133 L 57.5906,-130.079 L 57.7949,-129.998 L 57.9875,-129.892
 L 58.1653,-129.763 L 58.3255,-129.612 L 58.4656,-129.443 L 58.5833,-129.257 L 58.6769,-129.059 L 58.7448,-128.85
 L 58.786,-128.634 L 58.7998,-128.414 L 58.786,-128.195 L 58.7448,-127.979 L 58.6769,-127.77 L 58.5833,-127.571
 L 58.4656,-127.386 L 58.3255,-127.216 L 58.1653,-127.066 L 57.9875,-126.937 L 57.7949,-126.831 L 57.5906,-126.75
 L 57.3777,-126.695 L 57.1597,-126.668 z
M 171.04,-126.668 L 170.821,-126.695 L 170.609,-126.75 L 170.404,-126.831 L 170.212,-126.937 L 170.034,-127.066
 L 169.874,-127.216 L 169.734,-127.386 L 169.616,-127.571 L 169.522,-127.77 L 169.454,-127.979 L 169.413,-128.195
 L 169.399,-128.414 L 169.413,-128.634 L 169.454,-128.85 L 169.522,-129.059 L 169.616,-129.257 L 169.734,-129.443
 L 169.874,-129.612 L 170.034,-129.763 L 170.212,-129.892 L 170.404,-129.998 L 170.609,-130.079 L 170.821,-130.133
 L 171.04,-130.161 L 171.259,-130.161 L 171.477,-130.133 L 171.69,-130.079 L 171.895,-129.998 L 172.087,-129.892
 L 172.265,-129.763 L 172.425,-129.612 L 172.565,-129.443 L 172.683,-129.257 L 172.777,-129.059 L 172.844,-128.85
 L 172.886,-128.634 L 172.899,-128.414 L 172.886,-128.195 L 172.844,-127.979 L 172.777,-127.77 L 172.683,-127.571
 L 172.565,-127.386 L 172.425,-127.216 L 172.265,-127.066 L 172.087,-126.937 L 171.895,-126.831 L 171.69,-126.75
 L 171.477,-126.695 L 171.259,-126.668 z
M -57.1597,-126.668 L -57.3777,-126.695 L -57.5906,-126.75 L -57.7949,-126.831 L -57.9875,-126.937 L -58.1653,-127.066
 L -58.3255,-127.216 L -58.4656,-127.386 L -58.5833,-127.571 L -58.6769,-127.77 L -58.7448,-127.979 L -58.786,-128.195
 L -58.7998,-128.414 L -58.786,-128.634 L -58.7448,-128.85 L -58.6769,-129.059 L -58.5833,-129.257 L -58.4656,-129.443
 L -58.3255,-129.612 L -58.1653,-129.763 L -57.9875,-129.892 L -57.7949,-129.998 L -57.5906,-130.079 L -57.3777,-130.133
 L -57.1597,-130.161 L -56.9399,-130.161 L -56.7219,-130.133 L -56.509,-130.079 L -56.3047,-129.998 L -56.1121,-129.892
 L -55.9343,-129.763 L -55.7741,-129.612 L -55.634,-129.443 L -55.5163,-129.257 L -55.4227,-129.059 L -55.3548,-128.85
 L -55.3136,-128.634 L -55.2998,-128.414 L -55.3136,-128.195 L -55.3548,-127.979 L -55.4227,-127.77 L -55.5163,-127.571
 L -55.634,-127.386 L -55.7741,-127.216 L -55.9343,-127.066 L -56.1121,-126.937 L -56.3047,-126.831 L -56.509,-126.75
 L -56.7219,-126.695 L -56.9399,-126.668 z
M -171.259,-126.668 L -171.477,-126.695 L -171.69,-126.75 L -171.895,-126.831 L -172.087,-126.937 L -172.265,-127.066
 L -172.425,-127.216 L -172.565,-127.386 L -172.683,-127.571 L -172.777,-127.77 L -172.844,-127.979 L -172.886,-128.195
 L -172.899,-128.414 L -172.886,-128.634 L -172.844,-128.85 L -172.777,-129.059 L -172.683,-129.257 L -172.565,-129.443
 L -172.425,-129.612 L -172.265,-129.763 L -172.087,-129.892 L -171.895,-129.998 L -171.69,-130.079 L -171.477,-130.133
 L -171.259,-130.161 L -171.04,-130.161 L -170.821,-130.133 L -170.609,-130.079 L -170.404,-129.998 L -170.212,-129.892
 L -170.034,-129.763 L -169.874,-129.612 L -169.734,-129.443 L -169.616,-129.257 L -169.522,-129.059 L -169.454,-128.85
 L -169.413,-128.634 L -169.399,-128.414 L -169.413,-128.195 L -169.454,-127.979 L -169.522,-127.77 L -169.616,-127.571
 L -169.734,-127.386 L -169.874,-127.216 L -170.034,-127.066 L -170.212,-126.937 L -170.404,-126.831 L -170.609,-126.75
 L -170.821,-126.695 L -171.04,-126.668 z
M 56.9399,-101.168 L 56.7219,-101.195 L 56.509,-101.25 L 56.3047,-101.331 L 56.1121,-101.437 L 55.9343,-101.566
 L 55.7741,-101.716 L 55.634,-101.886 L 55.5163,-102.071 L 55.4227,-102.27 L 55.3548,-102.479 L 55.3136,-102.695
 L 55.2998,-102.914 L 55.3136,-103.134 L 55.3548,-103.35 L 55.4227,-103.559 L 55.5163,-103.757 L 55.634,-103.943
 L 55.7741,-104.112 L 55.9343,-104.263 L 56.1121,-104.392 L 56.3047,-104.498 L 56.509,-104.579 L 56.7219,-104.633
 L 56.9399,-104.661 L 57.1597,-104.661 L 57.3777,-104.633 L 57.5906,-104.579 L 57.7949,-104.498 L 57.9875,-104.392
 L 58.1653,-104.263 L 58.3255,-104.112 L 58.4656,-103.943 L 58.5833,-103.757 L 58.6769,-103.559 L 58.7448,-103.35
 L 58.786,-103.134 L 58.7998,-102.914 L 58.786,-102.695 L 58.7448,-102.479 L 58.6769,-102.27 L 58.5833,-102.071
 L 58.4656,-101.886 L 58.3255,-101.716 L 58.1653,-101.566 L 57.9875,-101.437 L 57.7949,-101.331 L 57.5906,-101.25
 L 57.3777,-101.195 L 57.1597,-101.168 z
M -57.1597,-101.168 L -57.3777,-101.195 L -57.5906,-101.25 L -57.7949,-101.331 L -57.9875,-101.437 L -58.1653,-101.566
 L -58.3255,-101.716 L -58.4656,-101.886 L -58.5833,-102.071 L -58.6769,-102.27 L -58.7448,-102.479 L -58.786,-102.695
 L -58.7998,-102.914 L -58.786,-103.134 L -58.7448,-103.35 L -58.6769,-103.559 L -58.5833,-103.757 L -58.4656,-103.943
 L -58.3255,-104.112 L -58.1653,-104.263 L -57.9875,-104.392 L -57.7949,-104.498 L -57.5906,-104.579 L -57.3777,-104.633
 L -57.1597,-104.661 L -56.9399,-104.661 L -56.7219,-104.633 L -56.509,-104.579 L -56.3047,-104.498 L -56.1121,-104.392
 L -55.9343,-104.263 L -55.7741,-104.112 L -55.634,-103.943 L -55.5163,-103.757 L -55.4227,-103.559 L -55.3548,-103.35
 L -55.3136,-103.134 L -55.2998,-102.914 L -55.3136,-102.695 L -55.3548,-102.479 L -55.4227,-102.27 L -55.5163,-102.071
 L -55.634,-101.886 L -55.7741,-101.716 L -55.9343,-101.566 L -56.1121,-101.437 L -56.3047,-101.331 L -56.509,-101.25
 L -56.7219,-101.195 L -56.9399,-101.168 z
M 146.94,-101.168 L 146.722,-101.195 L 146.509,-101.25 L 146.305,-101.331 L 146.112,-101.437 L 145.934,-101.566
 L 145.774,-101.716 L 145.634,-101.886 L 145.516,-102.071 L 145.423,-102.27 L 145.355,-102.479 L 145.314,-102.695
 L 145.3,-102.914 L 145.314,-103.134 L 145.355,-103.35 L 145.423,-103.559 L 145.516,-103.757 L 145.634,-103.943
 L 145.774,-104.112 L 145.934,-104.263 L 146.112,-104.392 L 146.305,-104.498 L 146.509,-104.579 L 146.722,-104.633
 L 146.94,-104.661 L 147.16,-104.661 L 147.378,-104.633 L 147.591,-104.579 L 147.795,-104.498 L 147.987,-104.392
 L 148.165,-104.263 L 148.325,-104.112 L 148.466,-103.943 L 148.583,-103.757 L 148.677,-103.559 L 148.745,-103.35
 L 148.786,-103.134 L 148.8,-102.914 L 148.786,-102.695 L 148.745,-102.479 L 148.677,-102.27 L 148.583,-102.071
 L 148.466,-101.886 L 148.325,-101.716 L 148.165,-101.566 L 147.987,-101.437 L 147.795,-101.331 L 147.591,-101.25
 L 147.378,-101.195 L 147.16,-101.168 z
M -147.16,-101.168 L -147.378,-101.195 L -147.591,-101.25 L -147.795,-101.331 L -147.987,-101.437 L -148.165,-101.566
 L -148.325,-101.716 L -148.466,-101.886 L -148.583,-102.071 L -148.677,-102.27 L -148.745,-102.479 L -148.786,-102.695
 L -148.8,-102.914 L -148.786,-103.134 L -148.745,-103.35 L -148.677,-103.559 L -148.583,-103.757 L -148.466,-103.943
 L -148.325,-104.112 L -148.165,-104.263 L -147.987,-104.392 L -147.795,-104.498 L -147.591,-104.579 L -147.378,-104.633
 L -147.16,-104.661 L -146.94,-104.661 L -146.722,-104.633 L -146.509,-104.579 L -146.305,-104.498 L -146.112,-104.392
 L -145.934,-104.263 L -145.774,-104.112 L -145.634,-103.943 L -145.516,-103.757 L -145.423,-103.559 L -145.355,-103.35
 L -145.314,-103.134 L -145.3,-102.914 L -145.314,-102.695 L -145.355,-102.479 L -145.423,-102.27 L -145.516,-102.071
 L -145.634,-101.886 L -145.774,-101.716 L -145.934,-101.566 L -146.112,-101.437 L -146.305,-101.331 L -146.509,-101.25
 L -146.722,-101.195 L -146.94,-101.168 z
M 56.9399,-2.75345 L 56.7219,-2.78099 L 56.509,-2.83565 L 56.3047,-2.91655 L 56.1121,-3.02242 L 55.9343,-3.1516
 L 55.7741,-3.30203 L 55.634,-3.47137 L 55.5163,-3.65692 L 55.4227,-3.85577 L 55.3548,-4.06479 L 55.3136,-4.28065
 L 55.2998,-4.5 L 55.3136,-4.71933 L 55.3548,-4.9352 L 55.4227,-5.14421 L 55.5163,-5.34306 L 55.634,-5.52861
 L 55.7741,-5.69795 L 55.9343,-5.84839 L 56.1121,-5.97757 L 56.3047,-6.08344 L 56.509,-6.16434 L 56.7219,-6.21899
 L 56.9399,-6.24654 L 57.1597,-6.24654 L 57.3777,-6.21899 L 57.5906,-6.16434 L 57.7949,-6.08344 L 57.9875,-5.97757
 L 58.1653,-5.84839 L 58.3255,-5.69795 L 58.4656,-5.52861 L 58.5833,-5.34306 L 58.6769,-5.14421 L 58.7448,-4.9352
 L 58.786,-4.71933 L 58.7998,-4.5 L 58.786,-4.28065 L 58.7448,-4.06479 L 58.6769,-3.85577 L 58.5833,-3.65692
 L 58.4656,-3.47137 L 58.3255,-3.30203 L 58.1653,-3.1516 L 57.9875,-3.02242 L 57.7949,-2.91655 L 57.5906,-2.83565
 L 57.3777,-2.78099 L 57.1597,-2.75345 z
M 171.04,-2.75345 L 170.821,-2.78099 L 170.609,-2.83565 L 170.404,-2.91655 L 170.212,-3.02242 L 170.034,-3.1516
 L 169.874,-3.30203 L 169.734,-3.47137 L 169.616,-3.65692 L 169.522,-3.85577 L 169.454,-4.06479 L 169.413,-4.28065
 L 169.399,-4.5 L 169.413,-4.71933 L 169.454,-4.9352 L 169.522,-5.14421 L 169.616,-5.34306 L 169.734,-5.52861
 L 169.874,-5.69795 L 170.034,-5.84839 L 170.212,-5.97757 L 170.404,-6.08344 L 170.609,-6.16434 L 170.821,-6.21899
 L 171.04,-6.24654 L 171.259,-6.24654 L 171.477,-6.21899 L 171.69,-6.16434 L 171.895,-6.08344 L 172.087,-5.97757
 L 172.265,-5.84839 L 172.425,-5.69795 L 172.565,-5.52861 L 172.683,-5.34306 L 172.777,-5.14421 L 172.844,-4.9352
 L 172.886,-4.71933 L 172.899,-4.5 L 172.886,-4.28065 L 172.844,-4.06479 L 172.777,-3.85577 L 172.683,-3.65692
 L 172.565,-3.47137 L 172.425,-3.30203 L 172.265,-3.1516 L 172.087,-3.02242 L 171.895,-2.91655 L 171.69,-2.83565
 L 171.477,-2.78099 L 171.259,-2.75345 z
M -57.1597,-2.75345 L -57.3777,-2.78099 L -57.5906,-2.83565 L -57.7949,-2.91655 L -57.9875,-3.02242 L -58.1653,-3.1516
 L -58.3255,-3.30203 L -58.4656,-3.47137 L -58.5833,-3.65692 L -58.6769,-3.85577 L -58.7448,-4.06479 L -58.786,-4.28065
 L -58.7998,-4.5 L -58.786,-4.71933 L -58.7448,-4.9352 L -58.6769,-5.14421 L -58.5833,-5.34306 L -58.4656,-5.52861
 L -58.3255,-5.69795 L -58.1653,-5.84839 L -57.9875,-5.97757 L -57.7949,-6.08344 L -57.5906,-6.16434 L -57.3777,-6.21899
 L -57.1597,-6.24654 L -56.9399,-6.24654 L -56.7219,-6.21899 L -56.509,-6.16434 L -56.3047,-6.08344 L -56.1121,-5.97757
 L -55.9343,-5.84839 L -55.7741,-5.69795 L -55.634,-5.52861 L -55.5163,-5.34306 L -55.4227,-5.14421 L -55.3548,-4.9352
 L -55.3136,-4.71933 L -55.2998,-4.5 L -55.3136,-4.28065 L -55.3548,-4.06479 L -55.4227,-3.85577 L -55.5163,-3.65692
 L -55.634,-3.47137 L -55.7741,-3.30203 L -55.9343,-3.1516 L -56.1121,-3.02242 L -56.3047,-2.91655 L -56.509,-2.83565
 L -56.7219,-2.78099 L -56.9399,-2.75345 z
M -171.259,-2.75345 L -171.477,-2.78099 L -171.69,-2.83565 L -171.895,-2.91655 L -172.087,-3.02242 L -172.265,-3.1516
 L -172.425,-3.30203 L -172.565,-3.47137 L -172.683,-3.65692 L -172.777,-3.85577 L -172.844,-4.06479 L -172.886,-4.28065
 L -172.899,-4.5 L -172.886,-4.71933 L -172.844,-4.9352 L -172.777,-5.14421 L -172.683,-5.34306 L -172.565,-5.52861
 L -172.425,-5.69795 L -172.265,-5.84839 L -172.087,-5.97757 L -171.895,-6.08344 L -171.69,-6.16434 L -171.477,-6.21899
 L -171.259,-6.24654 L -171.04,-6.24654 L -170.821,-6.21899 L -170.609,-6.16434 L -170.404,-6.08344 L -170.212,-5.97757
 L -170.034,-5.84839 L -169.874,-5.69795 L -169.734,-5.52861 L -169.616,-5.34306 L -169.522,-5.14421 L -169.454,-4.9352
 L -169.413,-4.71933 L -169.399,-4.5 L -169.413,-4.28065 L -169.454,-4.06479 L -169.522,-3.85577 L -169.616,-3.65692
 L -169.734,-3.47137 L -169.874,-3.30203 L -170.034,-3.1516 L -170.212,-3.02242 L -170.404,-2.91655 L -170.609,-2.83565
 L -170.821,-2.78099 L -171.04,-2.75345 z
" stroke="black" fill="lightgray" stroke-width="0.5"/>
</svg>
